<svg class="duoicon" width="1em" height="1em" viewBox="0 0 24 24" xmlns="http://www.w3.org/2000/svg">
  <path fill="currentColor" d="M 12 2 C 17.523 2 22 6.477 22 12 C 22 17.523 17.523 22 12 22 C 6.477 22 2 17.523 2 12 C 2 6.477 6.477 2 12 2 Z" opacity=".3" class="duoicon-secondary-layer"></path>
  <path fill="currentColor" d="M 12 7 C 11.493 7 11.066 7.38 11.007 7.883 L 11 8 L 11 11 L 8 11 C 7.23 11.001 6.75 11.835 7.136 12.501 C 7.293 12.773 7.57 12.956 7.883 12.993 L 8 13 L 11 13 L 11 16 C 11.001 16.77 11.835 17.25 12.501 16.864 C 12.773 16.707 12.956 16.43 12.993 16.117 L 13 16 L 13 13 L 16 13 C 16.77 12.999 17.25 12.165 16.864 11.499 C 16.707 11.227 16.43 11.044 16.117 11.007 L 16 11 L 13 11 L 13 8 C 13 7.448 12.552 7 12 7 Z" class="duoicon-primary-layer"></path>
</svg>