<svg class="duoicon" width="1em" height="1em" viewBox="0 0 24 24" xmlns="http://www.w3.org/2000/svg">
  <path fill="currentColor" d="M 11.514 16.903 C 11.753 16.568 12.251 16.568 12.49 16.903 L 15.256 20.771 C 15.525 21.147 15.286 21.672 14.826 21.717 C 14.807 21.719 14.786999999999999 21.72 14.768 21.72 L 9.237 21.72 C 8.775 21.72 8.486 21.22 8.717 20.82 C 8.727 20.803 8.738 20.787 8.749 20.771 L 11.514 16.903 Z" class="duoicon-primary-layer"></path>
  <path fill="currentColor" d="M 20 4 C 21.105 4 22 4.895 22 6 L 22 17 C 22 18.105 21.105 19 20 19 L 16.29 19 L 13.139 14.593 C 12.581 13.812 11.419 13.812 10.861 14.593 L 7.711 19 L 4 19 C 2.895 19 2 18.105 2 17 L 2 6 C 2 4.895 2.895 4 4 4 L 20 4 Z" opacity=".3" class="duoicon-secondary-layer"></path>
</svg>