<svg class="duoicon" width="1em" height="1em" viewBox="0 0 24 24" xmlns="http://www.w3.org/2000/svg">
  <path fill="currentColor" d="M 13.299 3.148 L 21.933 18.102 C 22.51 19.102 21.789 20.352 20.634 20.352 C 20.634 20.352 20.634 20.352 20.634 20.352 L 3.366 20.352 C 2.211 20.352 1.49 19.102 2.067 18.102 C 2.067 18.102 2.067 18.102 2.067 18.102 L 10.701 3.148 C 11.278 2.148 12.721 2.148 13.299 3.148 Z" opacity=".3" class="duoicon-secondary-layer"></path>
  <path fill="currentColor" d="M 12 8 C 11.493 8 11.066 8.38 11.007 8.883 L 11 9 L 11 13 C 11.001 13.77 11.835 14.25 12.501 13.864 C 12.773 13.707 12.956 13.43 12.993 13.117 L 13 13 L 13 9 C 13 8.448 12.552 8 12 8 Z" class="duoicon-primary-layer"></path>
  <path fill="currentColor" d="M 12 15 C 11.23 15 10.749 15.833 11.134 16.5 C 11.313 16.809 11.643 17 12 17 C 12.77 17 13.251 16.167 12.866 15.5 C 12.687 15.191 12.357 15 12 15 Z" class="duoicon-primary-layer"></path>
</svg>