<svg class="duoicon" width="1em" height="1em" viewBox="0 0 24 24" xmlns="http://www.w3.org/2000/svg">
  <path fill="currentColor" d="M 15.314 2 C 15.844 2 16.353 2.211 16.728 2.586 L 21.414 7.272 C 21.789 7.647 22 8.156 22 8.686 L 22 15.314 C 22 15.844 21.789 16.353 21.414 16.728 L 16.728 21.414 C 16.353 21.789 15.844 22 15.314 22 L 8.686 22 C 8.156 22 7.647 21.789 7.272 21.414 L 2.586 16.728 C 2.211 16.353 2 15.844 2 15.314 L 2 8.686 C 2 8.156 2.211 7.647 2.586 7.272 L 7.272 2.586 C 7.647 2.211 8.156 2 8.686 2 L 15.314 2 Z" fill-rule="evenodd" opacity=".3" class="duoicon-secondary-layer"></path>
  <path fill="currentColor" d="M 12 6 C 11.493 6 11.066 6.38 11.007 6.883 L 11 7 L 11 13 C 11.001 13.77 11.835 14.25 12.501 13.864 C 12.773 13.707 12.956 13.43 12.993 13.117 L 13 13 L 13 7 C 13 6.448 12.552 6 12 6 Z" fill-rule="evenodd" class="duoicon-primary-layer"></path>
  <path fill="currentColor" d="M 12 15 C 11.23 15 10.749 15.833 11.134 16.5 C 11.313 16.809 11.643 17 12 17 C 12.77 17 13.251 16.167 12.866 15.5 C 12.687 15.191 12.357 15 12 15 Z" fill-rule="evenodd" class="duoicon-primary-layer"></path>
</svg>