<svg class="duoicon" width="1em" height="1em" viewBox="0 0 24 24" xmlns="http://www.w3.org/2000/svg">
  <path fill="currentColor" d="M 17 17.5 C 18.155 17.501 18.876 18.751 18.298000000000002 19.751 C 18.056 20.17 17.626 20.446 17.144 20.493 L 17 20.5 L 7 20.5 C 5.845 20.499 5.124 19.249 5.702 18.249 C 5.944 17.83 6.374 17.554 6.856 17.507 L 7 17.5 L 17 17.5 Z" opacity=".3" class="duoicon-secondary-layer"></path>
  <path fill="currentColor" d="M 20 2.5 C 21.155 2.501 21.876 3.751 21.298000000000002 4.751 C 21.056 5.17 20.626 5.446 20.144 5.493 L 20 5.5 L 4 5.5 C 2.845 5.499 2.124 4.249 2.702 3.249 C 2.944 2.83 3.374 2.5540000000000003 3.856 2.507 L 4 2.5 L 20 2.5 Z" class="duoicon-primary-layer"></path>
  <path fill="currentColor" d="M 17 7.5 C 18.155 7.501 18.876 8.751 18.298000000000002 9.751 C 18.056 10.17 17.626 10.446 17.144 10.493 L 17 10.5 L 7 10.5 C 5.845 10.499 5.124 9.249 5.702 8.249 C 5.944 7.83 6.374 7.554 6.856 7.507 L 7 7.5 L 17 7.5 Z" opacity=".3" class="duoicon-secondary-layer"></path>
  <path fill="currentColor" d="M 20 12.5 C 21.155 12.5 21.876 13.75 21.299 14.75 C 21.031 15.214 20.536 15.5 20 15.5 L 4 15.5 C 2.845 15.5 2.124 14.25 2.701 13.25 C 2.969 12.786 3.464 12.5 4 12.5 L 20 12.5 Z" class="duoicon-primary-layer"></path>
</svg>