<svg class="duoicon" width="1em" height="1em" viewBox="0 0 24 24" xmlns="http://www.w3.org/2000/svg">
  <path fill="currentColor" d="M 7 11.5 C 3.5358983848622465 11.5 1.3708348754011488 7.750000000000002 3.102885682970025 4.750000000000002 C 3.906733260263393 3.3576951545867377 5.392304845413264 2.5000000000000004 7 2.5 C 10.464101615137753 2.5 12.62916512459885 6.25 10.897114317029974 9.25 C 10.093266739736606 10.642304845413264 8.607695154586736 11.5 7 11.5 Z" class="duoicon-primary-layer"></path>
  <path fill="currentColor" d="M 17 21.5 C 13.535898384862247 21.5 11.37083487540115 17.750000000000004 13.102885682970026 14.750000000000002 C 13.906733260263394 13.357695154586736 15.392304845413264 12.5 17 12.5 C 20.464101615137753 12.5 22.62916512459885 16.25 20.897114317029974 19.25 C 20.093266739736606 20.642304845413264 18.607695154586736 21.5 17 21.5 Z" opacity=".3" class="duoicon-secondary-layer"></path>
  <path fill="currentColor" d="M 17 11.5 C 13.535898384862247 11.5 11.37083487540115 7.750000000000002 13.102885682970026 4.750000000000002 C 13.906733260263394 3.3576951545867377 15.392304845413264 2.5000000000000004 17 2.5 C 20.464101615137753 2.5 22.62916512459885 6.25 20.897114317029974 9.25 C 20.093266739736606 10.642304845413264 18.607695154586736 11.5 17 11.5 Z" opacity=".3" class="duoicon-secondary-layer"></path>
  <path fill="currentColor" d="M 7 21.5 C 3.5358983848622465 21.5 1.3708348754011488 17.750000000000004 3.102885682970025 14.750000000000002 C 3.906733260263393 13.357695154586736 5.392304845413264 12.5 7 12.5 C 10.464101615137753 12.5 12.62916512459885 16.25 10.897114317029974 19.25 C 10.093266739736606 20.642304845413264 8.607695154586736 21.5 7 21.5 Z" opacity=".3" class="duoicon-secondary-layer"></path>
</svg>