<svg class="duoicon" width="1em" height="1em" viewBox="0 0 24 24" xmlns="http://www.w3.org/2000/svg">
  <path fill="currentColor" d="M 8.75 13 C 9.992640687119286 13 11 14.007359312880714 11 15.25 L 11 18.75 C 11 19.992640687119284 9.992640687119286 21 8.75 21 L 5.25 21 C 4.007359312880714 21 3 19.992640687119284 3 18.75 L 3 15.25 C 3 14.007359312880716 4.007359312880714 13 5.25 13 L 8.75 13 Z" opacity=".3" class="duoicon-secondary-layer"></path>
  <path fill="currentColor" d="M 18.75 3 C 19.992640687119284 3 21 4.007359312880714 21 5.25 L 21 8.75 C 21 9.992640687119286 19.992640687119284 11 18.75 11 L 15.25 11 C 14.007359312880716 11 13 9.992640687119286 13 8.75 L 13 5.25 C 13 4.007359312880714 14.007359312880714 3.0000000000000004 15.25 3 L 18.75 3 Z" opacity=".3" class="duoicon-secondary-layer"></path>
  <path fill="currentColor" d="M 8.75 3 C 9.992640687119286 3 11 4.007359312880714 11 5.25 L 11 8.75 C 11 9.992640687119286 9.992640687119286 11 8.75 11 L 5.25 11 C 4.007359312880714 11 3 9.992640687119286 3 8.75 L 3 5.25 C 3 4.007359312880714 4.007359312880714 3.0000000000000004 5.25 3 L 8.75 3 Z" class="duoicon-primary-layer"></path>
  <path fill="currentColor" d="M 18.75 13 C 19.992640687119284 13 21 14.007359312880714 21 15.25 L 21 18.75 C 21 19.992640687119284 19.992640687119284 21 18.75 21 L 15.25 21 C 14.007359312880716 21 13 19.992640687119284 13 18.75 L 13 15.25 C 13 14.007359312880716 14.007359312880714 13 15.25 13 L 18.75 13 Z" opacity=".3" class="duoicon-secondary-layer"></path>
</svg>