<svg class="duoicon" width="1em" height="1em" viewBox="0 0 24 24" xmlns="http://www.w3.org/2000/svg">
  <path fill="currentColor" d="M 13.064 6.685 L 13.809 6.379 C 14.414 6.139 15.196 5.894 16.119 6.049 C 18.01 6.367 19.314 7.388 20.091 8.742 C 20.391 9.264 20.149 9.952 19.589 10.171 C 17.796 10.872 17.435 13.252 18.939 14.454 C 19.172 14.641 19.438 14.784 19.722 14.877 C 20.24 15.047 20.532 15.622 20.362 16.14 C 19.92 17.482 19.284 18.721 18.531 19.721 C 17.787 20.709 16.879 21.529 15.868 21.93 C 15.208 22.19 14.5 22.093 13.823 21.925 L 13.421 21.818 L 12.824 21.645 C 12.553 21.566 12.274000000000001 21.498 12 21.498 C 11.725 21.498 11.447 21.566 11.176 21.645 L 10.579 21.818 L 10.177 21.925 C 9.5 22.093 8.791 22.191 8.132 21.93 C 6.859 21.426 5.736 20.25 4.8870000000000005 18.863 C 3.968 17.336 3.3609999999999998 15.641 3.103 13.877 C 2.8760000000000003 12.323 2.999 10.578 3.718 9.102 C 4.458 7.5809999999999995 5.814 6.397 7.881 6.049 C 8.721 5.908 9.443 6.097 10.021 6.314 L 10.352 6.444 L 10.936 6.685 C 11.336 6.8420000000000005 11.651 6.934 12 6.934 C 12.348 6.934 12.664 6.8420000000000005 13.064 6.685 Z" opacity=".3" class="duoicon-secondary-layer"></path>
  <path fill="currentColor" d="M 11.768 2.768 C 12.744 1.791 14.243 1.7069999999999999 14.596 2.061 C 14.95 2.414 14.866 3.9130000000000003 13.889 4.889 C 12.913 5.865 11.414 5.949 11.061 5.596 C 10.707 5.243 10.791 3.7439999999999998 11.768 2.768 Z" class="duoicon-primary-layer"></path>
</svg>