<svg class="duoicon" width="1em" height="1em" viewBox="0 0 24 24" xmlns="http://www.w3.org/2000/svg">
    <path fill="currentColor" d="M 10.586 2.1 C 11.32 1.367 12.492 1.317 13.286 1.984 L 13.414 2.101 L 15.314 4 L 18 4 C 19.046 4 19.916 4.807 19.994 5.85 L 20 6 L 20 8.686 L 21.9 10.586 C 22.633 11.32 22.684 12.493 22.016 13.287 L 21.899 13.414 L 19.999 15.314 L 19.999 18 C 19.999 19.047 19.193 19.917 18.149 19.995 L 18 20 L 15.315 20 L 13.415 21.9 C 12.681 22.633 11.508 22.684 10.714 22.016 L 10.587 21.9 L 8.687 20 L 6 20 C 4.953 20 4.083 19.194 4.005 18.15 L 4 18 L 4 15.314 L 2.1 13.414 C 1.367 12.68 1.316 11.507 1.984 10.713 L 2.1 10.586 L 4 8.686 L 4 6 C 4 4.954 4.807 4.084 5.85 4.006 L 6 4 L 8.686 4 L 10.586 2.1 Z" fill-rule="evenodd" opacity=".3" class="duoicon-secondary-layer"></path>
    <path fill="currentColor" d="M 15.079 8.983 L 10.835 13.227 L 9.067 11.459 C 8.522 10.915 7.593 11.164 7.394 11.908 C 7.301 12.253 7.4 12.621 7.6530000000000005 12.874 L 10.057 15.278 C 10.487 15.708 11.183 15.708 11.613 15.278 L 16.493 10.397 C 17.028 9.843 16.763 8.918 16.016 8.732 C 15.681 8.649000000000001 15.327 8.743 15.079 8.983 Z" fill-rule="evenodd" class="duoicon-primary-layer"></path>
</svg>