<svg class="duoicon" width="1em" height="1em" viewBox="0 0 24 24" xmlns="http://www.w3.org/2000/svg">
  <path fill="currentColor" d="M 12 2 C 17.523 2 22 6.477 22 12 C 22 17.523 17.523 22 12 22 C 6.477 22 2 17.523 2 12 C 2 6.477 6.477 2 12 2 Z" fill-rule="evenodd" opacity=".3" class="duoicon-secondary-layer"></path>
  <path fill="currentColor" d="M 11.873 5.511 C 11.505 4.835 10.543 4.811 10.141 5.468 C 9.972 5.745 9.948 6.086 10.076 6.384 L 10.127 6.489 L 10.854 7.786 L 9.047 11.012 C 8.669 11.682 9.158 12.511 9.928 12.504 C 10.246 12.5 10.544 12.346 10.73 12.087 L 10.793 11.989 L 13.873 6.489 C 14.255 5.821 13.771 4.989 13.001 4.993 C 12.679 4.994 12.377 5.15 12.19 5.413 L 12.127 5.511 L 12 5.74 L 11.873 5.513 L 11.873 5.511 Z" fill-rule="evenodd" class="duoicon-primary-layer"></path>
  <path fill="currentColor" d="M 14.393 10.011 C 14.025 9.335 13.063 9.311 12.661 9.968 C 12.492 10.245 12.468 10.586 12.596 10.884 L 12.648 10.989 L 15.728 16.489 C 16.105 17.16 17.067 17.172 17.46 16.51 C 17.621 16.239 17.645 15.908 17.524 15.617 L 17.472 15.511 L 17.186 15.001 L 17.7 15.001 C 18.47 15.007 18.957 14.178 18.578 13.508 C 18.419 13.228 18.136 13.042 17.817 13.007 L 17.7 13 L 16.066 13 L 14.393 10.011 Z" fill-rule="evenodd" class="duoicon-primary-layer"></path>
  <path fill="currentColor" d="M 12.5 13 L 6.3 13 C 5.53 13 5.049 13.833 5.434 14.5 C 5.6129999999999995 14.809 5.943 15 6.3 15 L 6.814 15 L 6.527 15.511 C 6.151 16.183 6.643 17.011 7.413 17.001 C 7.77 16.996 8.098 16.801 8.273 16.489 L 9.106 15 L 12.5 15 C 13.27 15 13.751 14.167 13.366 13.5 C 13.187 13.191 12.857 13 12.5 13 Z" fill-rule="evenodd" class="duoicon-primary-layer"></path>
</svg>