<svg class="duoicon" width="1em" height="1em" viewBox="0 0 24 24" xmlns="http://www.w3.org/2000/svg">
  <path fill="currentColor" d="M 12 2 C 18.158 2 22.007 8.667 18.928 14 C 18.431 14.862 17.777 15.623 17 16.245 L 17 20.855 C 17 21.623 16.233 22.154 15.514 21.885 L 12 20.569 L 8.486 21.887 C 7.767 22.157 6.999 21.624 7 20.856 L 7 16.246 C 2.192 12.398 3.352 4.788 9.089 2.548 C 10.017 2.186 11.004 2 12 2 Z" opacity=".3" class="duoicon-secondary-layer"></path>
  <path fill="currentColor" d="M 12 6 C 15.079 6 17.004 9.333 15.464 12 C 14.75 13.238 13.429 14 12 14 C 8.921 14 6.996 10.667 8.536 8 C 9.25 6.7620000000000005 10.571 6 12 6 Z" class="duoicon-primary-layer"></path>
</svg>