<svg class="duoicon" width="1em" height="1em" viewBox="0 0 24 24" xmlns="http://www.w3.org/2000/svg">
  <path fill="currentColor" d="M 7.746 2.609 C 8.51 2.313 9.312 2.702 9.623 3.382 L 12.643 10 L 18 10 L 18 8.5 C 18 7.119 19.119 6 20.5 6 L 21 6 C 21.77 6 22.251 6.833 21.866 7.5 C 21.687 7.809 21.357 8 21 8 L 20.5 8 C 20.224 8 20 8.224 20 8.5 L 20 11 C 20 13.314 19.109 15.539 17.511 17.213 C 19.271 17.991 19.529 20.383 17.975 21.518 C 16.421 22.653 14.22 21.681 14.014 19.767 C 14.005 19.678 14 19.589 14 19.5 L 14 19.485 C 12.059 20.171 9.941 20.171 8 19.485 L 8 19.5 C 8 21.425 5.916 22.627 4.25 21.664 C 2.583 20.701999999999998 2.584 18.296 4.25 17.334 C 4.328 17.29 4.407 17.249 4.489 17.213 C 0.063 12.574 1.7690000000000001 4.927 7.746 2.609 Z" fill-rule="evenodd" opacity=".3" class="duoicon-secondary-layer"></path>
  <path fill="currentColor" d="M 8.012 4.669 C 5.8870000000000005 5.672 4.407 7.6739999999999995 4.072 10 L 10.444 10 L 8.012 4.67 L 8.012 4.669 Z" fill-rule="evenodd" class="duoicon-primary-layer"></path>
</svg>