<svg class="duoicon" width="1em" height="1em" viewBox="0 0 24 24" xmlns="http://www.w3.org/2000/svg">
  <path fill="currentColor" d="M 18 6 C 19.105 6 20 6.895 20 8 L 20 9 C 21.105 9 22 9.895 22 11 L 22 13 C 22 14.105 21.105 15 20 15 L 20 16 C 20 17.105 19.105 18 18 18 L 12.899000000000001 18 L 15.563 13.559 C 16.549 11.917 15.76 9.909 14.158 9.234 L 14.573 8.544 C 15.051 7.745 15.116 6.814 14.828 6 L 18 6 Z" opacity=".3" class="duoicon-secondary-layer"></path>
  <path fill="currentColor" d="M 11.142 6.486 C 11.535 5.824 12.497 5.835 12.874 6.506 C 13.03 6.784 13.044 7.121 12.912 7.411 L 12.857 7.515 L 10.768 11 L 12.983 11 C 13.729 11 14.204 11.773 13.903 12.427 L 13.849 12.53 L 10.859 17.515 C 10.469 18.179 9.507 18.172 9.127 17.502 C 8.968 17.222 8.954 16.882 9.089 16.589 L 9.144 16.485 L 11.233 13 L 9.019 13 C 8.285 13 7.796 12.242 8.099 11.573 L 8.153 11.47 L 11.143 6.486 L 11.142 6.486 Z" class="duoicon-primary-layer"></path>
  <path fill="currentColor" d="M 9.101 6 L 6.437 10.441 C 5.484 12.028 6.19 13.957 7.684 14.693999999999999 L 7.8420000000000005 14.766 L 7.428 15.456 C 7.002 16.163 6.8870000000000005 17.015 7.111 17.81 L 7.171 18 L 4 18 C 2.9530000000000003 18 2.083 17.194 2.005 16.15 L 2 16 L 2 8 C 2 6.954 2.807 6.084 3.85 6.006 L 4 6 L 9.101 6 Z" opacity=".3" class="duoicon-secondary-layer"></path>
</svg>