<svg class="duoicon" width="1em" height="1em" viewBox="0 0 24 24" xmlns="http://www.w3.org/2000/svg">
    <path fill="currentColor" d="M 6 2 C 4.895 2 4 2.895 4 4 L 4 5 C 3.23 5 2.749 5.833 3.134 6.5 C 3.313 6.809 3.643 7 4 7 L 4 9 C 3.23 9 2.749 9.833 3.134 10.5 C 3.313 10.809 3.643 11 4 11 L 4 13 C 3.23 13 2.749 13.833 3.134 14.5 C 3.313 14.809 3.643 15 4 15 L 4 17 C 3.23 17 2.749 17.833 3.134 18.5 C 3.313 18.809 3.643 19 4 19 L 4 20 C 4 21.105 4.895 22 6 22 L 18 22 C 19.105 22 20 21.105 20 20 L 20 4 C 20 2.895 19.105 2 18 2 L 6 2 Z" fill-rule="evenodd" opacity=".3" class="duoicon-secondary-layer"></path>
    <path fill="currentColor" d="M 8.5 6 C 7.672 6 7 6.672 7 7.5 L 7 8.5 C 7 9.328 7.672 10 8.5 10 L 15.5 10 C 16.328 10 17 9.328 17 8.5 L 17 7.5 C 17 6.672 16.328 6 15.5 6 L 8.5 6 Z" fill-rule="evenodd" class="duoicon-primary-layer"></path>
</svg>