<svg class="duoicon" width="1em" height="1em" viewBox="0 0 24 24" xmlns="http://www.w3.org/2000/svg">
  <path fill="currentColor" d="M 3.255 3.667 C 2.749 3.076 3.072 2.16 3.837 2.017 C 3.898 2.006 3.96 2 4.022 2 L 16.5 2 C 19.964 2 22.129 5.75 20.397 8.75 C 19.593 10.142 18.108 11 16.5 11 L 4.022 11 C 3.245 11 2.759 10.158 3.1470000000000002 9.485 C 3.179 9.431000000000001 3.215 9.38 3.255 9.333 L 4.009 8.453 C 4.9719999999999995 7.329 4.9719999999999995 5.672 4.009 4.548 L 3.255 3.668 L 3.255 3.667 Z" fill-rule="evenodd" opacity=".3" class="duoicon-secondary-layer"></path>
  <path fill="currentColor" d="M 3 16.5 C 3 14.015 5.015 12 7.5 12 L 19.978 12 C 20.755 12 21.241 12.842 20.853 13.515 C 20.821 13.569 20.785 13.62 20.745 13.667 L 19.99 14.547 C 19.027 15.671 19.027 17.328 19.99 18.452 L 20.745 19.332 C 21.252 19.922 20.93 20.839 20.165 20.983 C 20.104 20.994 20.041 21 19.978 21 L 7.5 21 C 5.015 21 3 18.985 3 16.5 Z" fill-rule="evenodd" class="duoicon-primary-layer"></path>
</svg>