<svg class="duoicon" width="1em" height="1em" viewBox="0 0 24 24" xmlns="http://www.w3.org/2000/svg">
  <path fill="currentColor" d="M 14.194 2.885 C 16.494 2.586 18.652 3.095 19.839 4.282 C 20.629 5.073 21.019 5.993 20.999 7.002 C 20.982 7.963 20.594 8.896 20.061 9.766 C 19.299 11.011 18.109 12.329 16.791 13.681 L 16.062 14.421 L 14.446 16.038 L 13.755 16.72 C 12.377 18.066 11.033 19.286 9.766 20.061 C 8.896 20.594 7.963 20.981 7.002 21 C 5.993 21.02 5.073 20.63 4.282 19.839 C 3.095 18.652 2.586 16.494 2.885 14.194 C 3.192 11.834 4.356 9.159 6.757 6.757 C 9.159 4.357 11.835 3.192 14.194 2.885 Z" fill-rule="evenodd" opacity=".3" class="duoicon-secondary-layer"></path>
  <path fill="currentColor" d="M 13.111 5.149 C 12.493 5.327 11.852 5.579 11.204 5.917 C 11.724 6.764 12.503 7.369 13.512 7.7059999999999995 C 14.239 7.959 14.967 7.3309999999999995 14.823 6.575 C 14.755 6.214 14.494 5.92 14.145 5.809 C 13.711 5.664 13.371 5.449 13.111 5.149 Z" fill-rule="evenodd" class="duoicon-primary-layer"></path>
  <path fill="currentColor" d="M 8.691 7.679 C 8.187 8.133 7.717 8.624 7.285 9.147 C 7.479 9.398 7.691 9.636 7.906 9.851 C 8.491 10.435 9.239 10.996 9.975999999999999 11.241 C 10.705 11.487 11.428 10.852 11.276 10.097 C 11.214 9.785 11.006 9.521 10.718 9.387 L 10.609 9.344 C 10.286 9.237 9.797 8.914 9.321 8.437 C 9.087 8.205 8.876 7.9510000000000005 8.691 7.679 Z" fill-rule="evenodd" class="duoicon-primary-layer"></path>
  <path fill="currentColor" d="M 5.691 11.665 C 5.351 12.393 5.102 13.16 4.949 13.948 C 5.369 14.308 5.868 14.586 6.441 14.778 C 7.172 15.022 7.892 14.383 7.7379999999999995 13.629 C 7.666 13.278 7.413 12.993 7.074 12.88 C 6.407 12.658 5.962 12.268 5.691 11.664 L 5.691 11.665 Z" fill-rule="evenodd" class="duoicon-primary-layer"></path>
</svg>