<svg class="duoicon" width="1em" height="1em" viewBox="0 0 24 24" xmlns="http://www.w3.org/2000/svg">
  <path fill="currentColor" d="M 15 18 C 15.77 18.001 16.25 18.835 15.864 19.501 C 15.707 19.773 15.43 19.956 15.117 19.993 L 15 20 L 12 20 C 11.23 19.999 10.75 19.165 11.136 18.499 C 11.293 18.227 11.57 18.044 11.883 18.007 L 12 18 L 15 18 Z" class="duoicon-primary-layer"></path>
  <path fill="currentColor" d="M 15 3 C 15.507 3 15.934 3.38 15.993 3.883 L 16 4 L 16 4.454 C 17.59 4.832 18.85 5.391 19.775 5.913 L 20 6.043 L 20 6 C 20.001 5.23 20.835 4.75 21.501 5.136 C 21.773 5.293 21.956 5.57 21.993 5.883 L 22 6 L 22 12.9 C 22 13.461 21.578 13.933 21.02 13.994 L 20.9 14 L 16.045 14 C 15.506 14 15.063 13.593 15.006 13.07 L 15 12.954 L 15 12.5 C 15.002 10.191 12.504 8.745 10.503 9.898 C 9.626 10.402 9.063 11.315 9.005 12.324 L 9 12.5 L 9 12.955 C 9 13.494 8.593 13.937 8.07 13.994 L 7.954 14 L 3.1 14 C 2.539 14 2.067 13.578 2.006 13.02 L 2 12.9 L 2 6 C 2.001 5.23 2.835 4.75 3.501 5.136 C 3.773 5.293 3.956 5.57 3.993 5.883 L 4 6 L 4 6.042 C 5.129 5.382 6.344 4.881 7.61 4.552 L 8 4.455 L 8 4 C 8.001 3.23 8.835 2.75 9.501 3.136 C 9.773 3.293 9.956 3.5700000000000003 9.993 3.883 L 10 4 L 10 4.109 C 11.17 3.981 12.349 3.965 13.522 4.063 L 14 4.109 L 14 4 C 14 3.448 14.448 3 15 3 Z" opacity=".3" class="duoicon-secondary-layer"></path>
  <path fill="currentColor" d="M 13 15 C 13.77 15 14.251 15.833 13.866 16.5 C 13.687 16.809 13.357 17 13 17 L 9 17 C 8.23 17 7.749 16.167 8.134 15.5 C 8.313 15.191 8.643 15 9 15 L 13 15 Z" class="duoicon-primary-layer"></path>
</svg>