<svg class="duoicon" width="1em" height="1em" viewBox="0 0 24 24" xmlns="http://www.w3.org/2000/svg">
  <path fill="currentColor" d="M 22 15 L 22 20 C 22 21.105 21.105 22 20 22 L 19 22 L 19 19 C 19 18.23 18.167 17.749 17.5 18.134 C 17.191 18.313 17 18.643 17 19 L 17 22 L 13 22 L 13 19 C 13 18.23 12.167 17.749 11.5 18.134 C 11.191 18.313 11 18.643 11 19 L 11 22 L 7 22 L 7 19 C 7 18.23 6.167 17.749 5.5 18.134 C 5.191 18.313 5 18.643 5 19 L 5 22 L 4 22 C 2.895 22 2 21.105 2 20 L 2 15 L 22 15 Z" class="duoicon-primary-layer"></path>
  <path fill="currentColor" d="M 13 2 C 14.105 2 15 2.895 15 4 L 15 8 C 15 8.552 15.448 9 16 9 L 20 9 C 21.105 9 22 9.895 22 11 L 22 13 L 2 13 L 2 11 C 2 9.895 2.895 9 4 9 L 8 9 C 8.552 9 9 8.552 9 8 L 9 4 C 9 2.895 9.895 2 11 2 L 13 2 Z" opacity=".3" class="duoicon-secondary-layer"></path>
</svg>