<svg class="duoicon" width="1em" height="1em" viewBox="0 0 24 24" xmlns="http://www.w3.org/2000/svg">
  <path fill="currentColor" d="M 20.485 10.586 L 21.545 11.646 C 22.473 12.573 22.527 14.059 21.668 15.051 L 21.546 15.181 L 15.182 21.546 C 14.255 22.474 12.768 22.527 11.777 21.668 L 11.647 21.546 L 10.586 20.486 L 20.486 10.586 L 20.485 10.586 Z" class="duoicon-primary-layer"></path>
  <path fill="currentColor" d="M 2.808 2.808 C 3.693 1.9220000000000002 4.818 1.478 5.992 1.605 C 7.1530000000000005 1.73 8.217 2.3970000000000002 9.048 3.451 C 9.936 4.578 10.748 6.183 11.384 7.625 C 11.695 8.329 12.544 8.499 13.06 8.1 L 13.153 8.019 L 13.768 7.404 C 14.695 6.476 16.182 6.423 17.173 7.282 L 17.303 7.404 L 19.071 9.172 L 9.171 19.071 L 7.404 17.303 C 6.476 16.376 6.423 14.889 7.282 13.898 L 7.404 13.768 L 8.019 13.153 C 8.519 12.653 8.373 11.714 7.625 11.384 C 6.183 10.748 4.578 9.936 3.451 9.048 C 2.398 8.217 1.7309999999999999 7.1530000000000005 1.605 5.992 C 1.478 4.818 1.9220000000000002 3.692 2.808 2.808 Z" opacity=".3" class="duoicon-secondary-layer"></path>
</svg>