<svg class="duoicon" width="1em" height="1em" viewBox="0 0 24 24" xmlns="http://www.w3.org/2000/svg">
  <path fill="currentColor" d="M 7.67 5.5 C 8.563 3.9530000000000003 10.214 3 12 3 C 13.786 3 15.437 3.9530000000000003 16.33 5.5 L 17.2 7 L 6.8 7 L 7.669 5.5 L 7.67 5.5 Z" fill-rule="evenodd" class="duoicon-primary-layer"></path>
  <path fill="currentColor" d="M 3.553 6.106 C 4.047 5.859 4.647 6.059 4.894 6.553 C 5.041 6.846 5.394 7.227 5.867 7.543 C 6.353 7.867 6.781 8 7 8 L 17 8 C 17.219 8 17.647 7.867 18.133 7.543 C 18.607 7.227 18.959 6.846 19.106 6.553 C 19.429 5.854 20.387 5.767 20.831 6.396 C 21.05 6.7059999999999995 21.074 7.113 20.894 7.447 C 20.541 8.154 19.894 8.773 19.242 9.207 C 18.938 9.411 18.614 9.584 18.276 9.723 C 18.573 10.454 18.779 11.219 18.892 12 L 21 12 C 21.77 12 22.251 12.833 21.866 13.5 C 21.687 13.809 21.357 14 21 14 L 18.988 14 C 18.934 15.143 18.683 16.269 18.248 17.327 C 18.82 17.657 19.211 18.187 19.457 18.677 C 19.806 19.402 19.991 20.195 20 21 C 20 21.77 19.167 22.251 18.5 21.866 C 18.191 21.687 18 21.357 18 21 C 18 20.626 17.899 20.034 17.668 19.572 C 17.538 19.312 17.408 19.163 17.283 19.082 C 16.227 20.568 14.744 21.622 13 21.917 L 13 13 C 13 12.23 12.167 11.749 11.5 12.134 C 11.191 12.313 11 12.643 11 13 L 11 21.917 C 9.256 21.622 7.773 20.567 6.717 19.083 C 6.591 19.163 6.462 19.313 6.332 19.573 C 6.122 20.02 6.009 20.506 6 21 C 6 21.77 5.167 22.251 4.5 21.866 C 4.191 21.687 4 21.357 4 21 C 4.009 20.196 4.194 19.403 4.543 18.678 C 4.789 18.186 5.18 17.658 5.752 17.328 C 5.317 16.269 5.066 15.144 5.012 14 L 3 14 C 2.23 14 1.749 13.167 2.134 12.5 C 2.313 12.191 2.643 12 3 12 L 5.108 12 C 5.221 11.219 5.428 10.454 5.724 9.723 C 5.386 9.584 5.062 9.411 4.758 9.207 C 4.107 8.773 3.458 8.154 3.106 7.447 C 2.859 6.953 3.059 6.353 3.553 6.106 Z" fill-rule="evenodd" opacity=".3" class="duoicon-secondary-layer"></path>
</svg>