<svg class="duoicon" width="1em" height="1em" viewBox="0 0 24 24" xmlns="http://www.w3.org/2000/svg">
  <path fill="currentColor" d="M 11.022 3 L 18 3 C 19.657 3 21 4.343 21 6 C 21.552 6 22 6.448 22 7 L 22 9 C 22 9.552 21.552 10 21 10 L 21 17 C 21 17.715 20.619 18.375 20 18.732 L 20 19.5 C 20 20.655 18.75 21.376 17.75 20.799 C 17.286 20.531 17 20.036 17 19.5 L 17 19 L 7 19 L 7 19.5 C 7 20.655 5.75 21.376 4.75 20.799 C 4.286 20.531 4 20.036 4 19.5 L 4 18.732 C 3.3810000000000002 18.375 3 17.715 3 17 L 3 10 C 2.448 10 2 9.552 2 9 L 2 7 C 2 6.448 2.448 6 3 6 C 3 4.343 4.343 3 6 3 L 11.022 3 Z" fill-rule="evenodd" opacity=".3" class="duoicon-secondary-layer"></path>
  <path fill="currentColor" d="M 15 15 C 15 14.448 15.448 14 16 14 L 17 14 C 17.77 14 18.251 14.833 17.866 15.5 C 17.687 15.809 17.357 16 17 16 L 16 16 C 15.448 16 15 15.552 15 15 Z" fill-rule="evenodd" class="duoicon-primary-layer"></path>
  <path fill="currentColor" d="M 6 15 C 6 14.448 6.448 14 7 14 L 8 14 C 8.77 14 9.251 14.833 8.866 15.5 C 8.687 15.809 8.357 16 8 16 L 7 16 C 6.448 16 6 15.552 6 15 Z" fill-rule="evenodd" class="duoicon-primary-layer"></path>
  <path fill="currentColor" d="M 11.618 5 L 14.382 5 L 13.106 7.553 C 12.741 8.231 13.246 9.05 14.015 9.027 C 14.395 9.016 14.735 8.791 14.894 8.447 L 16.618 5 L 18 5 C 18.552 5 19 5.448 19 6 L 19 11 L 5 11 L 5 6 C 5 5.448 5.448 5 6 5 L 9.382 5 L 8.106 7.553 C 7.7829999999999995 8.252 8.338 9.038 9.105 8.968 C 9.438 8.938 9.735 8.742 9.894 8.447 L 11.618 5 Z" fill-rule="evenodd" class="duoicon-primary-layer"></path>
</svg>