<svg class="duoicon" width="1em" height="1em" viewBox="0 0 24 24" xmlns="http://www.w3.org/2000/svg">
  <path fill="currentColor" d="M 21 12 L 21 19 C 21 20.105 20.105 21 19 21 L 5 21 C 3.895 21 3 20.105 3 19 L 3 12 L 21 12 Z" opacity=".3" class="duoicon-secondary-layer"></path>
  <path fill="currentColor" d="M 16 3 C 16.552 3 17 3.448 17 4 L 17 5 L 19 5 C 20.105 5 21 5.895 21 7 L 21 10 L 3 10 L 3 7 C 3 5.895 3.895 5 5 5 L 7 5 L 7 4 C 7 3.23 7.833 2.749 8.5 3.134 C 8.809 3.313 9 3.643 9 4 L 9 5 L 15 5 L 15 4 C 15 3.448 15.448 3 16 3 Z" class="duoicon-primary-layer"></path>
</svg>