<svg class="duoicon" width="1em" height="1em" viewBox="0 0 24 24" xmlns="http://www.w3.org/2000/svg">
  <path fill="currentColor" d="M 19 3 C 20.657 3 22 4.343 22 6 L 22 18 C 22 19.657 20.657 21 19 21 L 5 21 C 3.343 21 2 19.657 2 18 L 2 6 C 2 4.343 3.343 3 5 3 L 19 3 Z" opacity=".3" class="duoicon-secondary-layer"></path>
  <path fill="currentColor" d="M 19 6 L 18 6 C 17.23 6.001 16.75 6.835 17.136 7.501 C 17.293 7.773 17.57 7.956 17.883 7.993 L 18 8 L 19 8 C 19.77 7.999 20.25 7.165 19.864 6.499 C 19.707 6.227 19.43 6.044 19.117 6.007 L 19 6 Z" class="duoicon-primary-layer"></path>
  <path fill="currentColor" d="M 12 7 C 8.151 7 5.745 11.167 7.67 14.5 C 8.563 16.047 10.214 17 12 17 C 15.849 17 18.255 12.833 16.33 9.5 C 15.437 7.953 13.786 7 12 7 Z" class="duoicon-primary-layer"></path>
</svg>