<svg class="duoicon" width="1em" height="1em" viewBox="0 0 24 24" xmlns="http://www.w3.org/2000/svg">
  <path fill="currentColor" d="M 14.793 3 C 15.139 3 15.475 3.12 15.743 3.34 L 15.853 3.44 L 17.415 5 L 20 5 C 21.047 5 21.917 5.806 21.995 6.85 L 22 7 L 22 19 C 22 20.047 21.194 20.917 20.15 20.995 L 20 21 L 4 21 C 2.9530000000000003 21 2.083 20.194 2.005 19.15 L 2 19 L 2 7 C 2 5.953 2.806 5.083 3.85 5.005 L 4 5 L 6.586 5 L 8.146 3.44 C 8.391 3.194 8.714 3.041 9.059 3.007 L 9.207 3 L 14.793 3 Z" opacity=".3" class="duoicon-secondary-layer"></path>
  <path fill="currentColor" d="M 12 7.5 C 8.151 7.5 5.745 11.667 7.67 15 C 8.563 16.547 10.214 17.5 12 17.5 C 15.849 17.5 18.255 13.333 16.33 10 C 15.437 8.453 13.786 7.5 12 7.5 Z" class="duoicon-primary-layer"></path>
</svg>