<svg class="duoicon" width="1em" height="1em" viewBox="0 0 24 24" xmlns="http://www.w3.org/2000/svg">
  <path fill="currentColor" d="M 13.176 3.434 C 13.606 2.795 14.566 2.861 14.904 3.553 C 15.064 3.88 15.034 4.269 14.824 4.567 L 13.214 6.909 L 21.526 19 L 22 19 C 22.77 19 23.251 19.833 22.866 20.5 C 22.687 20.809 22.357 21 22 21 L 17.366 21 L 17.322 20.93 L 12.83 14.443 C 12.428 13.864 11.572 13.864 11.17 14.443 L 6.678 20.93 L 6.634 21 L 2 21 C 1.23 21 0.749 20.167 1.134 19.5 C 1.313 19.191 1.643 19 2 19 L 2.474 19 L 10.786999999999999 6.908 L 9.176 4.566 C 8.746 3.927 9.169 3.063 9.937 3.01 C 10.286 2.9859999999999998 10.623 3.1470000000000002 10.824 3.433 L 12 5.144 L 13.176 3.434 Z" opacity=".3" class="duoicon-secondary-layer"></path>
  <path fill="currentColor" d="M 12 16.757 L 14.938 21 L 9.062 21 L 12 16.757 Z" class="duoicon-primary-layer"></path>
</svg>