<svg class="duoicon" width="1em" height="1em" viewBox="0 0 24 24" xmlns="http://www.w3.org/2000/svg">
  <path fill="currentColor" d="M 12.058 2.08 C 11.458 1.823 10.776 2.201 10.676 2.846 C 10.649000000000001 3.074 10.576 3.295 10.46 3.493 C 10.36 3.658 10.21 3.827 9.946 4.073 C 9.426 4.555 9.109 5.132 9.024 5.754 C 8.95 6.326 9.064 6.907 9.35 7.409 C 9.842 8.296 10.84 9 11.903 9 C 13.285 9 15 8.034 15 6.194 C 15 5.251 14.578 4.365 14.054 3.682 C 13.526 2.995 12.811 2.403 12.058 2.081 L 12.058 2.08 Z" fill-rule="evenodd" class="duoicon-primary-layer"></path>
  <path fill="currentColor" d="M 9 10 C 7.895 10 7 10.895 7 12 L 7 20 C 7 21.105 7.895 22 9 22 L 15 22 C 16.105 22 17 21.105 17 20 L 17 12 C 17 10.895 16.105 10 15 10 L 9 10 Z" fill-rule="evenodd" opacity=".3" class="duoicon-secondary-layer"></path>
</svg>