<svg class="duoicon" width="1em" height="1em" viewBox="0 0 24 24" xmlns="http://www.w3.org/2000/svg">
  <path fill="currentColor" d="M 5.553 5.658 C 6.061 4.642 7.1 4 8.236 4 L 15.764 4 C 16.9 4 17.939 4.642 18.447 5.658 L 19.833 8.429 C 20.077 8.329 20.317 8.221 20.553 8.105 C 21.242 7.761 22.045 8.292 21.999 9.06 C 21.977 9.417 21.767 9.735 21.447 9.895 C 21.207 10.002 20.965 10.106 20.722 10.207 L 21.683 12.13 C 21.892 12.547 22 13.007 22 13.473 L 22 16 C 22.001 16.854 21.637 17.668 21 18.236 L 21 19.5 C 21 20.655 19.75 21.376 18.75 20.799 C 18.286 20.531 18 20.036 18 19.5 L 18 19 L 6 19 L 6 19.5 C 6 20.655 4.75 21.376 3.75 20.799 C 3.286 20.531 3 20.036 3 19.5 L 3 18.236 C 2.386 17.686 2 16.888 2 16 L 2 13.472 C 2 13.006 2.109 12.547 2.317 12.131 L 3.27 10.223 C 3.029 10.121 2.79 10.013 2.555 9.896 C 2.064 9.646 1.863 9.048 2.105 8.553 C 2.352 8.059 2.9530000000000003 7.8580000000000005 3.447 8.105 C 3.683 8.222 3.924 8.329 4.167 8.429 L 5.553 5.659 L 5.553 5.658 Z" fill-rule="evenodd" opacity=".3" class="duoicon-secondary-layer"></path>
  <path fill="currentColor" d="M 7.342 6.553 C 7.511 6.214 7.857 6 8.236 6 L 15.764 6 C 16.143 6 16.489 6.214 16.658 6.553 L 17.928 9.091 C 16.38 9.555 14.294 10 12 10 C 9.706 10 7.62 9.555 6.073 9.09 L 7.342 6.553 Z" fill-rule="evenodd" class="duoicon-primary-layer"></path>
  <path fill="currentColor" d="M 16.5 16 C 17.655 16 18.376 14.75 17.799 13.75 C 17.531 13.286 17.036 13 16.5 13 C 15.345 13 14.624 14.25 15.201 15.25 C 15.469 15.714 15.964 16 16.5 16 Z" fill-rule="evenodd" class="duoicon-primary-layer"></path>
  <path fill="currentColor" d="M 9 14.5 C 9 15.655 7.75 16.376 6.75 15.799 C 6.286 15.531 6 15.036 6 14.5 C 6 13.345 7.25 12.624 8.25 13.201 C 8.714 13.469 9 13.964 9 14.5 Z" fill-rule="evenodd" class="duoicon-primary-layer"></path>
</svg>