<svg class="duoicon" width="1em" height="1em" viewBox="0 0 24 24" xmlns="http://www.w3.org/2000/svg">
  <path fill="currentColor" d="M 15 2 C 15.552 2 16 2.448 16 3 L 16 4 L 17 4 C 18.657 4 20 5.343 20 7 L 20 8 L 21 8 C 21.77 8 22.251 8.833 21.866 9.5 C 21.687 9.809 21.357 10 21 10 L 20 10 L 20 14 L 21 14 C 21.77 14 22.251 14.833 21.866 15.5 C 21.687 15.809 21.357 16 21 16 L 20 16 L 20 17 C 20 18.657 18.657 20 17 20 L 16 20 L 16 21 C 16 21.77 15.167 22.251 14.5 21.866 C 14.191 21.687 14 21.357 14 21 L 14 20 L 10 20 L 10 21 C 10 21.77 9.167 22.251 8.5 21.866 C 8.191 21.687 8 21.357 8 21 L 8 20 L 7 20 C 5.343 20 4 18.657 4 17 L 4 16 L 3 16 C 2.23 16 1.749 15.167 2.134 14.5 C 2.313 14.191 2.643 14 3 14 L 4 14 L 4 10 L 3 10 C 2.23 10 1.749 9.167 2.134 8.5 C 2.313 8.191 2.643 8 3 8 L 4 8 L 4 7 C 4 5.343 5.343 4 7 4 L 8 4 L 8 3 C 8 2.23 8.833 1.749 9.5 2.134 C 9.809 2.313 10 2.643 10 3 L 10 4 L 14 4 L 14 3 C 14 2.448 14.448 2 15 2 Z" opacity=".3" class="duoicon-secondary-layer"></path>
  <path fill="currentColor" d="M 14 8 L 10 8 C 8.895 8 8 8.895 8 10 L 8 14 C 8 15.105 8.895 16 10 16 L 14 16 C 15.105 16 16 15.105 16 14 L 16 10 C 16 8.895 15.105 8 14 8 Z" class="duoicon-primary-layer"></path>
</svg>