<svg class="duoicon" width="1em" height="1em" viewBox="0 0 24 24" xmlns="http://www.w3.org/2000/svg">
  <path fill="currentColor" d="M 2 5 C 2 3.895 2.895 3 4 3 L 20 3 C 21.105 3 22 3.895 22 5 L 22 19 C 22 20.105 21.105 21 20 21 L 4 21 C 2.895 21 2 20.105 2 19 L 2 5 Z" fill-rule="evenodd" opacity=".3" class="duoicon-secondary-layer"></path>
  <path fill="currentColor" d="M 13 8 L 16 8 L 17 5 L 14 5 L 13 8 Z" fill-rule="evenodd" class="duoicon-primary-layer"></path>
  <path fill="currentColor" d="M 8 8 L 11 8 L 12 5 L 9 5 L 8 8 Z" fill-rule="evenodd" class="duoicon-primary-layer"></path>
  <path fill="currentColor" d="M 4 8 L 6 8 L 7 5 L 4 5 L 4 8 Z" fill-rule="evenodd" class="duoicon-primary-layer"></path>
  <path fill="currentColor" d="M 20 5 L 19 5 L 18 8 L 20 8 L 20 5 Z" fill-rule="evenodd" class="duoicon-primary-layer"></path>
</svg>