<svg class="duoicon" width="1em" height="1em" viewBox="0 0 24 24" xmlns="http://www.w3.org/2000/svg">
  <path fill="currentColor" d="M 12 4 C 18.928 4 23.258 11.5 19.794 17.5 C 18.187 20.285 15.215 22 12 22 C 5.072 22 0.742 14.5 4.206 8.5 C 5.813 5.715 8.785 4 12 4 Z" opacity=".3" class="duoicon-secondary-layer"></path>
  <path fill="currentColor" d="M 7.366 2.971 C 7.642 3.449 7.478 4.061 7 4.337 C 5.959 4.94 5.035 5.724 4.271 6.6530000000000005 C 3.799 7.261 2.846 7.13 2.555 6.417 C 2.4130000000000003 6.068 2.479 5.668 2.727 5.383 C 3.642 4.269 4.75 3.329 5.998 2.606 C 6.476 2.329 7.088 2.492 7.365 2.971 L 7.366 2.971 Z" class="duoicon-primary-layer"></path>
  <path fill="currentColor" d="M 18 2.606 C 19.248 3.328 20.356 4.268 21.272 5.382 C 21.744 5.99 21.381 6.881 20.618 6.986 C 20.284 7.032 19.949 6.906 19.728 6.652 C 18.964 5.723 18.04 4.939 16.999 4.337 C 16.333 3.951 16.334 2.989 17.001 2.605 C 17.311 2.427 17.692 2.427 18.001 2.606 L 18 2.606 Z" class="duoicon-primary-layer"></path>
  <path fill="currentColor" d="M 12 8 C 11.493 8 11.066 8.38 11.007 8.883 L 11 9 L 11 12.986 C 10.997 13.208 11.068 13.426 11.202 13.603 L 11.292 13.707 L 13.398 15.812 C 13.94 16.359 14.870000000000001 16.114 15.073 15.372 C 15.156 15.067 15.091 14.741 14.896 14.492 L 14.812 14.398 L 13 12.586 L 13 9 C 13 8.448 12.552 8 12 8 Z" class="duoicon-primary-layer"></path>
</svg>