<svg class="duoicon" width="1em" height="1em" viewBox="0 0 24 24" xmlns="http://www.w3.org/2000/svg">
  <path fill="currentColor" d="M 11.132 13.004 C 11.515 12.336 12.478 12.334 12.864 13 C 13.022 13.272 13.043 13.602 12.92 13.892 L 12.868 13.996 L 11.723 16 L 13.828 16 C 14.623 16 15.156 16.818 14.834 17.545 L 14.783 17.645 L 12.868 20.996 C 12.485 21.664 11.522 21.666 11.136 21 C 10.978 20.728 10.957 20.398 11.08 20.108 L 11.132 20.004 L 12.277 18 L 10.172 18 C 9.377 18 8.844 17.182 9.166 16.455 L 9.217 16.355 L 11.132 13.004 Z" class="duoicon-primary-layer"></path>
  <path fill="currentColor" d="M 11.5 2 C 14.208 2 16.632 3.678 17.586 6.212 C 22.041 7.437 23.499 13.026 20.21 16.271 C 19.288 17.181 18.096 17.768 16.813 17.945 C 17.262 16.39 16.403 14.747 14.919 14.194 C 15.449 11.945 13.346 9.966 11.134 10.631 C 10.399000000000001 10.852 9.777 11.346 9.395 12.012 L 7.481 15.362 C 7.015 16.164 6.939 17.135 7.273 18 L 7 18 C 3.151 18.003 0.743 13.837 2.665 10.503 C 3.2 9.575 4.018 8.844 5 8.416 C 5.046 4.859 7.943 2 11.5 2 Z" opacity=".3" class="duoicon-secondary-layer"></path>
</svg>