<svg class="duoicon" width="1em" height="1em" viewBox="0 0 24 24" xmlns="http://www.w3.org/2000/svg">
  <path fill="currentColor" d="M 14.5 19 C 15.655 19 16.376 20.25 15.799 21.25 C 15.531 21.714 15.036 22 14.5 22 C 13.345 22 12.624 20.75 13.201 19.75 C 13.469 19.286 13.964 19 14.5 19 Z" class="duoicon-primary-layer"></path>
  <path fill="currentColor" d="M 10.5 13 C 11.655 13 12.376 14.25 11.799 15.25 C 11.531 15.714 11.036 16 10.5 16 C 9.345 16 8.624 14.75 9.201 13.75 C 9.469 13.286 9.964 13 10.5 13 Z" class="duoicon-primary-layer"></path>
  <path fill="currentColor" d="M 14.5 15 C 15.655 15 16.376 16.25 15.799 17.25 C 15.531 17.714 15.036 18 14.5 18 C 13.345 18 12.624 16.75 13.201 15.75 C 13.469 15.286 13.964 15 14.5 15 Z" class="duoicon-primary-layer"></path>
  <path fill="currentColor" d="M 11.5 2 C 14.208 2 16.632 3.678 17.586 6.212 C 22.041 7.4350000000000005 23.502 13.023 20.215 16.27 C 19.531 16.946 18.694 17.447 17.776 17.732 C 18.637 15.443 16.945 13 14.5 13 C 14.029 12.997 13.586 12.776 13.301 12.401 C 11.686 10.244 8.342 10.644 7.282 13.121 C 6.9030000000000005 14.007 6.905 15.009 7.289 15.893 C 7.456 16.281 7.456 16.721 7.289 17.109 C 7.167 17.389 7.081 17.689 7.036 18.001 L 7 18.001 C 3.151 18.004 0.743 13.838000000000001 2.665 10.504 C 3.2 9.576 4.018 8.845 5 8.417 C 5.045 4.86 7.942 2 11.5 2 Z" opacity=".3" class="duoicon-secondary-layer"></path>
  <path fill="currentColor" d="M 10.5 17 C 11.655 17 12.376 18.25 11.799 19.25 C 11.531 19.714 11.036 20 10.5 20 C 9.345 20 8.624 18.75 9.201 17.75 C 9.469 17.286 9.964 17 10.5 17 Z" class="duoicon-primary-layer"></path>
</svg>