<svg class="duoicon" width="1em" height="1em" viewBox="0 0 24 24" xmlns="http://www.w3.org/2000/svg">
    <path fill="currentColor" d="M 21 16.143 L 21 17.5 C 21 18.314 20.619 19.01 20.09 19.557 C 19.567 20.099 18.857 20.541 18.058 20.891 C 16.456 21.591 14.314 22 12 22 C 9.686 22 7.5440000000000005 21.592 5.942 20.891 C 5.143 20.541 4.433 20.099 3.91 19.557 C 3.425 19.057 3.065 18.429 3.008 17.701 L 3 17.5 L 3 16.143 C 3.465 16.407 3.9619999999999997 16.641 4.494 16.838 C 6.524 17.589 9.179 18.008 12 18.008 C 14.821 18.008 17.476 17.589 19.506 16.838 C 19.905 16.69 20.284 16.522 20.645 16.335 L 21 16.143 Z" opacity=".3" class="duoicon-secondary-layer"></path>
    <path fill="currentColor" d="M 12 3 C 14.314 3 16.456 3.408 18.058 4.109 C 18.857 4.459 19.567 4.901 20.09 5.443 C 20.575 5.943 20.935 6.571 20.992 7.299 L 21 7.5 L 21 8.248 C 20.336 8.761 19.598 9.17 18.812 9.462 C 17.057 10.112 14.648 10.509 12 10.509 C 9.353 10.509 6.944 10.112 5.188 9.462 C 4.5120000000000005 9.211 3.871 8.873 3.283 8.456 L 3 8.248 L 3 7.5 C 3 6.686 3.3810000000000002 5.99 3.91 5.443 C 4.433 4.901 5.143 4.459 5.942 4.109 C 7.5440000000000005 3.409 9.686 3 12 3 Z" opacity=".3" class="duoicon-secondary-layer"></path>
    <path fill="currentColor" d="M 3 10.643 C 3.465 10.907 3.9619999999999997 11.141 4.494 11.338 C 6.524 12.089 9.179 12.508 12 12.508 C 14.821 12.508 17.476 12.089 19.506 11.338 C 20.022 11.147 20.522 10.915 21 10.643 L 21 13.748 C 20.336 14.261 19.598 14.67 18.812 14.962 C 17.057 15.612 14.648 16.009 12 16.009 C 9.353 16.009 6.944 15.612 5.188 14.962 C 4.402 14.67 3.6639999999999997 14.261 3 13.748 L 3 10.643 Z" class="duoicon-primary-layer"></path>
</svg>