<svg class="duoicon" width="1em" height="1em" viewBox="0 0 24 24" xmlns="http://www.w3.org/2000/svg">
  <path fill="currentColor" d="M 4.74 16.877 C 6.627 18.873 9.253 20.003 12 20 C 13.677 20.002 15.327 19.581 16.797 18.776 L 17.099 18.604 L 17.869 19.374 C 18.293 19.798 18.91 19.968 19.491 19.82 C 19.371 19.967 19.237 20.1 19.099 20.218 C 18.62 20.626 17.986 20.949 17.289 21.201 C 15.888 21.706 14.018 22 12 22 C 9.982 22 8.112 21.706 6.71 21.2 C 6.014 20.95 5.38 20.626 4.901 20.218 C 4.426 19.812 4 19.226 4 18.473 C 4 17.81 4.327 17.279 4.74 16.877 Z" class="duoicon-primary-layer"></path>
  <path fill="currentColor" d="M 12 6 C 11.232 6 10.514 6.217 9.905 6.592 L 11.404 8.09 C 12.873 7.63 14.289 8.933 13.953 10.436 C 13.941 10.49 13.927 10.543 13.91 10.596 L 15.408 12.095 C 17.021 9.472 15.189 6.087 12.111 6.002 C 12.074 6.001 12.037 6 12 6 Z" class="duoicon-primary-layer"></path>
  <path fill="currentColor" d="M 4.868 6.373 L 8.027 9.533 C 7.725 12.1 9.9 14.275 12.467 13.973 L 15.627 17.133 C 10.14 19.929 3.684 15.736 4.006 9.586 C 4.065 8.467 4.358 7.372 4.867 6.373 L 4.868 6.373 Z" class="duoicon-primary-layer"></path>
  <path fill="currentColor" d="M 12 2 C 18.158 2 22.008 8.666 18.929 14 C 18.786 14.247 18.63 14.487 18.461 14.718 L 18.275 14.962 L 19.778 16.465 C 20.321 17.01 20.071 17.939 19.327 18.137 C 19.026 18.217 18.705 18.153 18.458 17.962 L 18.364 17.879 L 4.222 3.737 C 3.679 3.192 3.9290000000000003 2.263 4.673 2.065 C 4.974 1.9849999999999999 5.295 2.049 5.542 2.24 L 5.636 2.323 L 7.038 3.725 C 8.449 2.605 10.199 1.9969999999999999 12 2 Z" opacity=".3" class="duoicon-secondary-layer"></path>
</svg>