<svg class="duoicon" width="1em" height="1em" viewBox="0 0 24 24" xmlns="http://www.w3.org/2000/svg">
  <path fill="currentColor" d="M 19.26 16.877 C 19.673 17.279 20 17.809 20 18.473 C 20 19.226 19.574 19.812 19.1 20.218 C 18.62 20.626 17.986 20.949 17.29 21.201 C 15.888 21.706 14.018 22 12 22 C 9.982 22 8.112 21.706 6.71 21.2 C 6.014 20.95 5.38 20.626 4.901 20.218 C 4.426 19.812 4 19.226 4 18.473 C 4 17.81 4.327 17.279 4.74 16.877 C 6.627 18.873 9.253 20.003 12 20 C 14.859 20 17.438 18.8 19.26 16.877 Z" class="duoicon-primary-layer"></path>
  <path fill="currentColor" d="M 12 6 C 8.921 6 6.996 9.333 8.536 12 C 9.25 13.238 10.571 14 12 14 C 15.079 14 17.004 10.667 15.464 8 C 14.75 6.7620000000000005 13.429 6 12 6 Z" class="duoicon-primary-layer"></path>
  <path fill="currentColor" d="M 12 2 C 18.158 2 22.007 8.667 18.928 14 C 17.499 16.475 14.858 18 12 18 C 5.8420000000000005 18 1.9929999999999999 11.333 5.072 6 C 6.501 3.525 9.142 2 12 2 Z" opacity=".3" class="duoicon-secondary-layer"></path>
</svg>