<svg class="duoicon" width="1em" height="1em" viewBox="0 0 24 24" xmlns="http://www.w3.org/2000/svg">
  <path fill="currentColor" d="M 23 7 C 21.237346919777814 6.903018420996766 19.4886521396549 7.361176457404425 18 8.31 C 17.64 7.9 17.27 7.49 16.88 7.1000000000000005 L 16.59 6.83 L 16.73 6.71 C 17.731643233476664 5.850170469021716 18.0909152062612 4.456993598265211 17.63 3.2199999999999998 C 16.965816050273183 1.8269642290047434 15.542661951554688 0.9566055121871155 14 1 L 14 3 C 14.724496011294745 2.9899150219129704 15.397787088354207 3.3724667468555243 15.76 4 C 15.93 4.4 15.76 4.84 15.29 5.3100000000000005 L 15.059999999999999 5.5200000000000005 C 14.01693156553618 4.6508553549055325 12.87182274119346 3.912075469998284 11.649999999999999 3.3200000000000003 C 9.119999999999997 2.18 7.8199999999999985 2.7100000000000004 7.179999999999999 3.3200000000000003 C 6.984984609127001 3.515488306852273 6.828883716261657 3.746246148548703 6.719999999999999 4 L 6.539999999999999 4.53 L 5.1 8.870000000000001 C 6.24 11.71 9 16.76 15 18.94 L 20 17.28 C 20.16861042598206 17.217229959466945 20.317163350241696 17.110133665511526 20.43 16.970000000000002 L 20.64 16.790000000000003 C 22.07 15.350000000000003 21.150000000000002 12.580000000000002 19.23 9.890000000000002 C 20.370049733547177 9.22465409679234 21.682755768854946 8.914757983416182 23 9 L 23 7 Z" opacity=".3" class="duoicon-secondary-layer"></path>
  <path fill="currentColor" d="M 4.4 11 L 2.1700000000000004 17.7 C 1.4771183844156726 19.817597486181427 3.051933798817899 21.99499501782026 5.28 22 C 5.620236470137514 21.99669030673515 5.957783136050539 21.939307375175314 6.28 21.83 L 12.8 19.659999999999997 C 9.1201317755032 17.780653245468432 6.166335177766027 14.735429615615296 4.4 11 Z" class="duoicon-primary-layer"></path>
  <path fill="currentColor" d="M 19.21 15.37 L 19.150000000000002 15.37 C 18.46 15.739999999999998 15.600000000000001 14.799999999999999 12.360000000000003 11.559999999999999 C 12.020000000000003 11.219999999999999 11.700000000000003 10.889999999999999 11.410000000000004 10.559999999999999 C 11.310000000000004 10.45 11.220000000000004 10.329999999999998 11.120000000000005 10.209999999999999 L 10.590000000000005 9.569999999999999 L 10.310000000000006 9.179999999999998 C 10.170000000000005 8.989999999999998 10.030000000000006 8.799999999999997 9.910000000000005 8.619999999999997 C 9.790000000000004 8.439999999999998 9.750000000000005 8.359999999999998 9.670000000000005 8.229999999999997 C 9.590000000000005 8.099999999999996 9.450000000000005 7.889999999999997 9.360000000000005 7.719999999999997 C 9.270000000000005 7.549999999999997 9.230000000000004 7.479999999999997 9.170000000000005 7.349999999999997 C 9.110000000000007 7.219999999999997 9.000000000000005 7.069999999999997 8.940000000000005 6.929999999999997 C 8.880000000000004 6.789999999999997 8.850000000000005 6.699999999999997 8.800000000000004 6.589999999999997 C 8.750000000000004 6.479999999999998 8.690000000000005 6.319999999999997 8.650000000000004 6.189999999999997 C 8.610000000000003 6.059999999999997 8.6 6 8.58 5.9 C 8.56 5.800000000000001 8.52 5.66 8.5 5.5600000000000005 C 8.49519567220646 5.480072129892337 8.49519567220646 5.399927870107664 8.5 5.32 C 8.49017139813465 5.233611991460787 8.49017139813465 5.146388008539214 8.5 5.0600000000000005 L 8.61 4.750000000000001 C 8.78 4.570000000000001 9.52 4.5200000000000005 10.84 5.120000000000001 C 11.722150295134446 5.543786383319926 12.556826075234717 6.060011563481244 13.33 6.660000000000001 C 12.908493762273642 6.846029224975766 12.459071952149895 6.960919010547351 12 7 L 12 9 C 13.062374376414017 8.939724310235883 14.093183625690983 8.616737404637645 15 8.06 L 15.49 8.520000000000001 C 15.93 8.950000000000001 16.32 9.38 16.68 9.790000000000001 C 16.077049043296757 10.818135667871356 15.837534632091971 12.019229991925123 16 13.2 L 18 12.809999999999999 C 17.932410801287656 12.433005460893947 17.932410801287656 12.04699453910605 18 11.669999999999998 C 19.29 13.639999999999999 19.53 15.059999999999999 19.21 15.369999999999997 L 19.21 15.37 Z" class="duoicon-primary-layer"></path>
</svg>