<svg class="duoicon" width="1em" height="1em" viewBox="0 0 24 24" xmlns="http://www.w3.org/2000/svg">
    <path fill="currentColor" d="M 2 12 C 2 6.477 6.477 2 12 2 C 17.523 2 22 6.477 22 12 C 22 17.523 17.523 22 12 22 C 6.477 22 2 17.523 2 12 Z" fill-rule="evenodd" opacity=".3" class="duoicon-secondary-layer"></path>
    <path fill="currentColor" d="M 8.7 13 C 8.804 13.856 9.057 14.716 9.486 15.458 C 10.083 16.489 11.058 17.338 12.446 17.501 C 13.853 17.667 15.283 16.991 16.146 15.886 C 16.486 15.45 16.407 14.821 15.971 14.482 C 15.479 14.098 14.878 14.283 14.511 14.725 C 13.563 15.870000000000001 11.961 15.741 11.217 14.455 C 10.967 14.003 10.798 13.511 10.72 13 L 15 13 C 15.77 13 16.251 12.167 15.866 11.5 C 15.687 11.191 15.357 11 15 11 L 10.746 11 C 10.846 10.483 11.019 10.002 11.256 9.607 C 11.966 8.422 13.59 8.116 14.499 9.267 C 14.851 9.712 15.449 9.913 15.947 9.549 C 16.392 9.222 16.487 8.596 16.16 8.151 C 15.315 6.995 14.062 6.43 12.629 6.552 C 11.196 6.675 10.172 7.525 9.541 8.578 C 9.105 9.305 8.838000000000001 10.15 8.718 11 L 8 11 C 7.23 11 6.749 11.833 7.134 12.5 C 7.313 12.809 7.643 13 8 13 L 8.7 13 Z" fill-rule="evenodd" class="duoicon-primary-layer"></path>
</svg>