<svg class="duoicon" width="1em" height="1em" viewBox="0 0 24 24" xmlns="http://www.w3.org/2000/svg">
    <path fill="currentColor" d="M 9.405 2.8970000000000002 C 10.838000000000001 1.676 12.928 1.619 14.425 2.761 L 14.595 2.8970000000000002 L 14.971 3.217 C 15.245 3.451 15.576 3.606 15.931000000000001 3.667 L 16.109 3.689 L 16.602 3.729 C 18.484 3.879 20.005 5.325 20.25 7.197 L 20.271 7.397 L 20.311 7.891 C 20.339 8.249 20.464 8.593 20.671 8.887 L 20.781 9.029 L 21.103 9.405 C 22.324 10.838000000000001 22.381 12.928 21.239 14.425 L 21.103 14.595 L 20.782 14.971 C 20.548000000000002 15.245 20.393 15.576 20.332 15.931000000000001 L 20.31 16.109 L 20.271 16.602 C 20.121 18.484 18.675 20.005 16.803 20.25 L 16.602 20.271 L 16.109 20.311 C 15.751 20.339 15.407 20.464 15.113 20.671 L 14.971 20.782 L 14.594 21.102 C 13.161 22.323 11.071 22.38 9.574 21.239 L 9.405 21.103 L 9.029 20.782 C 8.755 20.548000000000002 8.424 20.393 8.069 20.332 L 7.891 20.311 L 7.398 20.271 C 5.516 20.121 3.995 18.675 3.75 16.803 L 3.729 16.603 L 3.689 16.109 C 3.661 15.751 3.536 15.407 3.329 15.113 L 3.218 14.971 L 2.8970000000000002 14.594 C 1.676 13.161 1.619 11.071 2.761 9.574 L 2.8970000000000002 9.405 L 3.217 9.029 C 3.451 8.755 3.606 8.424 3.667 8.069 L 3.689 7.891 L 3.729 7.398 C 3.879 5.516 5.325 3.995 7.197 3.75 L 7.397 3.729 L 7.891 3.689 C 8.249 3.661 8.593 3.536 8.887 3.329 L 9.029 3.218 L 9.405 2.898 L 9.405 2.8970000000000002 Z" fill-rule="evenodd" opacity=".3" class="duoicon-secondary-layer"></path>
    <path fill="currentColor" d="M 9.5 8 C 8.345 8 7.624 9.25 8.201 10.25 C 8.469 10.714 8.964 11 9.5 11 C 10.655 11 11.376 9.75 10.799 8.75 C 10.531 8.286 10.036 8 9.5 8 Z" fill-rule="evenodd" class="duoicon-primary-layer"></path>
    <path fill="currentColor" d="M 14.293 8.293 L 8.293 14.293 C 7.739 14.828 7.9719999999999995 15.761 8.712 15.974 C 9.068 16.075 9.45 15.973 9.707 15.707 L 15.707 9.707 C 16.242 9.153 15.977 8.228 15.23 8.042 C 14.895 7.959 14.541 8.053 14.293 8.293 Z" fill-rule="evenodd" class="duoicon-primary-layer"></path>
    <path fill="currentColor" d="M 14.5 13 C 13.345 13 12.624 14.25 13.201 15.25 C 13.469 15.714 13.964 16 14.5 16 C 15.655 16 16.376 14.75 15.799 13.75 C 15.531 13.286 15.036 13 14.5 13 Z" fill-rule="evenodd" class="duoicon-primary-layer"></path>
</svg>