<svg class="duoicon" width="1em" height="1em" viewBox="0 0 24 24" xmlns="http://www.w3.org/2000/svg">
    <path fill="currentColor" d="M 12 2 L 12 8.5 C 12 9.328 12.672 10 13.5 10 L 20 10 L 20 20 C 20 21.105 19.105 22 18 22 L 6 22 C 4.895 22 4 21.105 4 20 L 4 4 C 4 2.895 4.895 2 6 2 L 12 2 Z" fill-rule="evenodd" opacity=".3" class="duoicon-secondary-layer"></path>
    <path fill="currentColor" d="M 14 2.043 C 14.379 2.123 14.725999999999999 2.312 15 2.586 L 19.414 7 C 19.688 7.274 19.877 7.621 19.957 8 L 14 8 L 14 2.043 Z" fill-rule="evenodd" class="duoicon-primary-layer"></path>
    <path fill="currentColor" d="M 11.654 11.699 L 10.76 13.234 L 9.023 13.61 C 8.723 13.675 8.605 14.04 8.81 14.268 L 9.994 15.593 L 9.814 17.361 C 9.783 17.666 10.093 17.891 10.374 17.767 L 12 17.051 L 13.626 17.767 C 13.907 17.891 14.217 17.666 14.186 17.361 L 14.006 15.593 L 15.19 14.268 C 15.395 14.04 15.277 13.675 14.977 13.61 L 13.24 13.234 L 12.346 11.699 C 12.192 11.433 11.808 11.433 11.654 11.699 Z" fill-rule="evenodd" class="duoicon-primary-layer"></path>
</svg>