<svg class="duoicon" width="1em" height="1em" viewBox="0 0 24 24" xmlns="http://www.w3.org/2000/svg">
  <path fill="currentColor" d="M 20 6 L 12 6 L 10.59 4.59 C 10.21 4.21 9.7 4 9.17 4 L 4 4 C 2.9 4 2.01 4.9 2.01 6 L 2 18 C 2 19.1 2.9 20 4 20 L 20 20 C 21.1 20 22 19.1 22 18 L 22 8 C 22 6.9 21.1 6 20 6 Z" opacity=".3" class="duoicon-secondary-layer"></path>
  <path fill="currentColor" d="M 13 13 L 13 16 C 13 16.55 12.55 17 12 17 C 11.45 17 11 16.55 11 16 L 11 13 L 9.21 13 C 8.760000000000002 13 8.540000000000001 12.46 8.860000000000001 12.15 L 11.66 9.36 C 11.86 9.16 12.17 9.17 12.370000000000001 9.36 L 15.16 12.149999999999999 C 15.46 12.459999999999999 15.24 12.999999999999998 14.8 12.999999999999998 L 13 12.999999999999998 L 13 13 Z" class="duoicon-primary-layer"></path>
</svg>