<svg class="duoicon" width="1em" height="1em" viewBox="0 0 24 24" xmlns="http://www.w3.org/2000/svg">
  <path fill="currentColor" d="M 12 22 L 11 19 L 4 19 C 3.4499999999999997 19 2.9793333333333334 18.804333333333332 2.588 18.413 C 2.196 18.021 2 17.55 2 17 L 2 4 C 2 3.4499999999999997 2.196 2.9789999999999996 2.588 2.5869999999999997 C 2.9793333333333334 2.1956666666666664 3.4499999999999997 2 4 2 L 10 2 L 10.875 5 L 20 5 C 20.583333333333332 5 21.062666666666665 5.187333333333333 21.438 5.562 C 21.812666666666665 5.937333333333333 22 6.416666666666667 22 7 L 22 20 C 22 20.55 21.812666666666665 21.021 21.438 21.413 C 21.062666666666665 21.804333333333332 20.583333333333332 22 20 22 L 12 22 Z" opacity=".3" class="duoicon-secondary-layer"></path>
  <path fill="currentColor" d="M 13 21 L 20 21 C 20.3 21 20.541666666666668 20.904 20.725 20.712 C 20.908333333333335 20.520666666666667 21 20.283333333333335 21 20 L 21 7 C 21 6.7 20.908333333333335 6.458333333333333 20.725 6.275 C 20.541666666666668 6.091666666666667 20.3 6 20 6 L 11.175 6 L 12.350000000000001 10.05 L 14.325000000000001 10.05 L 14.325000000000001 9 L 15.350000000000001 9 L 15.350000000000001 10.05 L 19 10.05 L 19 11.075000000000001 L 17.725 11.075000000000001 C 17.558333333333334 11.708333333333334 17.308333333333334 12.325000000000001 16.975 12.925 C 16.64166666666667 13.525 16.25 14.083333333333334 15.8 14.600000000000001 L 18.525000000000002 17.275000000000002 L 17.8 18 L 15.100000000000001 15.3 L 14.200000000000001 16.225 L 15 19 L 13 21 Z" class="duoicon-primary-layer"></path>
  <path fill="currentColor" d="M 15.100000000000001 13.825 C 15.566666666666668 13.275 15.921000000000001 12.75 16.163 12.25 C 16.404333333333334 11.75 16.566666666666666 11.358333333333333 16.65 11.075 L 12.674999999999999 11.075 L 12.975 12.125 L 13.975 12.125 C 14.108333333333333 12.375 14.266666666666666 12.646 14.45 12.938 C 14.633333333333333 13.229333333333333 14.85 13.525 15.1 13.825000000000001 L 15.100000000000001 13.825 Z" class="duoicon-primary-layer"></path>
  <path fill="currentColor" d="M 13.850000000000001 15.1 L 14.400000000000002 14.575 C 14.16666666666667 14.291666666666666 13.954333333333336 14.016666666666666 13.763000000000002 13.75 C 13.571000000000002 13.483333333333333 13.383333333333335 13.2 13.200000000000001 12.9 L 13.850000000000001 15.1 Z" class="duoicon-primary-layer"></path>
  <path fill="currentColor" d="M 7.15 14.6 C 8.3 14.6 9.246 14.229333333333333 9.988 13.488 C 10.729333333333333 12.746 11.1 11.783333333333333 11.1 10.6 C 11.1 10.466666666666667 11.096 10.345666666666666 11.088 10.237 C 11.079333333333333 10.129 11.058333333333332 10.016666666666666 11.024999999999999 9.9 L 7.074999999999998 9.9 L 7.074999999999998 11.450000000000001 L 9.3 11.450000000000001 C 9.166666666666668 11.916666666666668 8.912333333333335 12.279 8.537 12.537 C 8.162333333333335 12.795666666666667 7.708333333333334 12.925 7.175000000000001 12.925 C 6.525000000000001 12.925 5.966666666666668 12.691666666666668 5.500000000000001 12.225000000000001 C 5.033333333333334 11.758333333333335 4.800000000000001 11.183333333333335 4.800000000000001 10.500000000000002 C 4.800000000000001 9.816666666666668 5.033333333333334 9.241666666666669 5.500000000000001 8.775000000000002 C 5.966666666666668 8.308333333333335 6.525000000000001 8.075000000000003 7.175000000000001 8.075000000000003 C 7.4750000000000005 8.075000000000003 7.758333333333334 8.129000000000003 8.025 8.237000000000004 C 8.291666666666668 8.34566666666667 8.533333333333333 8.508333333333336 8.75 8.725000000000003 L 9.975 7.55 C 9.625 7.183333333333334 9.204333333333333 6.9 8.713 6.7 C 8.221 6.5 7.699999999999999 6.4 7.149999999999999 6.4 C 6.033333333333332 6.4 5.079333333333332 6.795666666666667 4.2879999999999985 7.587000000000001 C 3.4959999999999996 8.379000000000001 3.1 9.35 3.1 10.5 C 3.1 11.65 3.496 12.620666666666667 4.288 13.411999999999999 C 5.0793333333333335 14.203999999999999 6.033333333333333 14.6 7.15 14.6 Z" class="duoicon-primary-layer"></path>
</svg>