<svg class="duoicon" width="1em" height="1em" viewBox="0 0 24 24" xmlns="http://www.w3.org/2000/svg">
    <path fill="currentColor" d="M 20 3 C 21.105 3 22 3.895 22 5 L 22 19 C 22 20.105 21.105 21 20 21 L 4 21 C 2.895 21 2 20.105 2 19 L 2 5 C 2 3.895 2.895 3 4 3 L 20 3 Z" opacity=".3" class="duoicon-secondary-layer"></path>
    <path fill="currentColor" d="M 17 7 L 14 7 C 13.23 7 12.749 7.833 13.134 8.5 C 13.313 8.809 13.643 9 14 9 L 17 9 C 17.77 9 18.251 8.167 17.866 7.5 C 17.687 7.191 17.357 7 17 7 Z" style="visibility: hidden;" class="duoicon-primary-layer"></path>
    <path fill="currentColor" d="M 10 9 L 10 11 L 8 11 L 8 9 L 10 9 Z" class="duoicon-primary-layer"></path>
    <path fill="currentColor" d="M 17 11 L 14 11 C 13.23 11.001 12.75 11.835 13.136 12.501 C 13.293 12.773 13.57 12.956 13.883 12.993 L 14 13 L 17 13 C 17.77 12.999 18.25 12.165 17.864 11.499 C 17.707 11.227 17.43 11.044 17.117 11.007 L 17 11 Z" class="duoicon-primary-layer"></path>
    <path fill="currentColor" d="M 10 7 L 8 7 C 6.953 7 6.083 7.806 6.005 8.85 L 6 9 L 6 11 C 6 12.047 6.806 12.917 7.85 12.995 L 8 13 L 10 13 C 11.047 13 11.917 12.194 11.995 11.15 L 12 11 L 12 9 C 12 7.953 11.194 7.083 10.15 7.005 L 10 7 Z" class="duoicon-primary-layer"></path>
    <path fill="currentColor" d="M 17 15 L 7 15 C 6.23 15 5.749 15.833 6.134 16.5 C 6.313 16.809 6.643 17 7 17 L 17 17 C 17.77 17 18.251 16.167 17.866 15.5 C 17.687 15.191 17.357 15 17 15 Z" class="duoicon-primary-layer"></path>
</svg>