<svg class="duoicon" width="1em" height="1em" viewBox="0 0 24 24" xmlns="http://www.w3.org/2000/svg">
  <path fill="currentColor" d="M 12 1.999 C 17.524 1.999 22.002000000000002 6.477 22.002000000000002 12.001000000000001 C 22.002000000000002 17.524 17.524 22.002000000000002 12.000000000000002 22.002000000000002 C 6.476000000000002 22.002000000000002 2.0000000000000018 17.524 2.0000000000000018 12.001000000000003 C 1.999 6.477 6.476 1.999 12 1.999 Z" opacity=".3" class="duoicon-secondary-layer"></path>
  <path fill="currentColor" d="M 12.001000000000001 6.5 C 11.037594850812246 6.5 10.435466632569897 7.542916666666667 10.917169207163775 8.37725 C 11.140728150048808 8.764465447563268 11.553882114229934 9.003 12.001000000000001 9.003 C 12.964405149003106 9.002614637917379 13.566116782994923 7.959457119916077 13.084080475140166 7.125316467783966 C 12.860366646109732 6.738190443877393 12.44711788568437 6.499821152835042 12 6.5 L 12.001000000000001 6.5 Z" class="duoicon-primary-layer"></path>
  <path fill="currentColor" d="M 11.996 10.249 C 11.488727586312518 10.249692571319708 11.06233590916524 10.630092565003034 11.004000000000001 11.134 L 10.997000000000002 11.25 L 11.001000000000001 16.752 L 11.007000000000001 16.869 C 11.095394376191289 17.633708458728126 11.978462050990462 18.015961526226448 12.59652181464222 17.55705552152905 C 12.818837426200952 17.391987392066152 12.962758405478317 17.14212848140252 12.994000000000002 16.867 L 13 16.75 L 12.996 11.248999999999999 L 12.989 11.131999999999998 C 12.929172204250232 10.628524892484613 12.502017060031791 10.24950013139231 11.995000000000001 10.249999999999998 L 11.996 10.249 Z" class="duoicon-primary-layer"></path>
</svg>