<svg class="duoicon" width="1em" height="1em" viewBox="0 0 24 24" xmlns="http://www.w3.org/2000/svg">
  <path fill="currentColor" d="M 13 20 C 13.77 20.001 14.25 20.835 13.864 21.501 C 13.707 21.773 13.43 21.956 13.117 21.993 L 13 22 L 11 22 C 10.23 21.999 9.75 21.165 10.136 20.499 C 10.293 20.227 10.57 20.044 10.883 20.007 L 11 20 L 13 20 Z" class="duoicon-primary-layer"></path>
  <path fill="currentColor" d="M 13.707 6.293 C 13.350999999999999 5.937 12.785 5.901 12.387 6.21 L 12.293 6.293 L 10.3 8.286 C 9.94 8.646 9.904 9.217 10.216 9.619 L 10.3 9.714 L 11.586 11 L 10.293 12.293 C 9.75 12.838000000000001 10 13.767 10.744 13.965 C 11.045 14.045 11.366 13.981 11.613 13.79 L 11.707 13.707 L 13.7 11.714 C 14.06 11.354 14.096 10.783 13.784 10.381 L 13.7 10.286 L 12.414 9 L 13.707 7.707 C 14.097 7.317 14.097 6.683 13.707 6.293 Z" class="duoicon-primary-layer"></path>
  <path fill="currentColor" d="M 12 2 C 16.41 2 20 5.543 20 9.933 C 20 12.939 18.478 15.129 17.22 16.427 L 16.936 16.71 L 16.666 16.962 L 16.414 17.182 L 16.084 17.452 L 15.756 17.696 C 15.515 17.866 15.353 18.115 15.206 18.374 L 15.001 18.738 C 14.763 19.148 14.484 19.5 13.893 19.5 L 10.107 19.5 C 9.517 19.5 9.237 19.149 8.999 18.738 L 8.881 18.53 C 8.709 18.218 8.533 17.9 8.244 17.696 L 8.012 17.525 L 7.813 17.37 L 7.586 17.182 L 7.334 16.962 L 7.064 16.71 L 6.779 16.427 C 5.522 15.129 4 12.939 4 9.933 C 4 5.543 7.59 2 12 2 Z" opacity=".3" class="duoicon-secondary-layer"></path>
</svg>