<svg class="duoicon" width="1em" height="1em" viewBox="0 0 24 24" xmlns="http://www.w3.org/2000/svg">
  <path fill="currentColor" d="M 12 19 C 12.552 19 13 19.448 13 20 L 13 21 C 13 21.77 12.167 22.251 11.5 21.866 C 11.191 21.687 11 21.357 11 21 L 11 20 C 11 19.448 11.448 19 12 19 Z" fill-rule="evenodd" class="duoicon-primary-layer"></path>
  <path fill="currentColor" d="M 14.83 14 L 9.17 14 C 9.94 16.178 12.779 16.706 14.28 14.95 C 14.48 14.717 14.642 14.454 14.762 14.172 L 14.83 14 Z" fill-rule="evenodd" class="duoicon-primary-layer"></path>
  <path fill="currentColor" d="M 12 2 C 12.507 2 12.934 2.38 12.993 2.883 L 13 3 L 13 4.1 L 21.175 12.276 C 21.784 12.884 21.398 13.906 20.575 13.994 L 20.461 14 L 16.9 14 C 16.127 17.772 11.56 19.293 8.68 16.737 C 7.927 16.069 7.393 15.189 7.148 14.212 L 7.1 14 L 3.54 14 C 2.679 14 2.23 13.005 2.749 12.361 L 2.826 12.276 L 11 4.1 L 11 3 C 11 2.448 11.448 2 12 2 Z" fill-rule="evenodd" opacity=".3" class="duoicon-secondary-layer"></path>
  <path fill="currentColor" d="M 7.05 16.95 C 7.44 17.34 7.44 17.974 7.05 18.364 L 6.343 19.071 C 5.789 19.606 4.864 19.341 4.678 18.594 C 4.595 18.259 4.689 17.905 4.929 17.657 L 5.636 16.95 C 6.026 16.56 6.66 16.56 7.05 16.95 Z" fill-rule="evenodd" class="duoicon-primary-layer"></path>
  <path fill="currentColor" d="M 16.95 16.95 C 17.306 16.594 17.872 16.558 18.27 16.867 L 18.364 16.95 L 19.071 17.657 C 19.614 18.202 19.364 19.131 18.62 19.329 C 18.319 19.409 17.998 19.345 17.751 19.154 L 17.657 19.071 L 16.95 18.364 C 16.56 17.974 16.56 17.34 16.95 16.95 Z" fill-rule="evenodd" class="duoicon-primary-layer"></path>
</svg>