<svg class="duoicon" width="1em" height="1em" viewBox="0 0 24 24" xmlns="http://www.w3.org/2000/svg">
  <path fill="currentColor" d="M 6.72 16.64 C 7.459 16.424 8.154 17.09 7.971 17.838 C 7.8870000000000005 18.185 7.623 18.46 7.28 18.56 C 6.78 18.706 6.42 18.86 6.189 19 C 6.427 19.143 6.803 19.303 7.325 19.452 C 8.48 19.782 10.133 20 12 20 C 13.867 20 15.52 19.782 16.675 19.452 C 17.198 19.303 17.573 19.143 17.811 19 C 17.581 18.86 17.221 18.706 16.721 18.56 C 15.986 18.332 15.772 17.394 16.337 16.871 C 16.59 16.636 16.947 16.549 17.28 16.64 C 17.948 16.835 18.56 17.085 19.03 17.406 C 19.465 17.705 20 18.226 20 19 C 20 19.783 19.452 20.308 19.01 20.607 C 18.532 20.929 17.907 21.18 17.224 21.375 C 15.846 21.77 14 22 12 22 C 10 22 8.154 21.77 6.776 21.375 C 6.093 21.18 5.468 20.929 4.99 20.607 C 4.548 20.307 4 19.783 4 19 C 4 18.226 4.535 17.705 4.97 17.406 C 5.44 17.085 6.052 16.835 6.72 16.64 Z" class="duoicon-primary-layer"></path>
  <path fill="currentColor" d="M 12 7.5 C 10.46 7.5 9.498 9.167 10.268 10.5 C 10.625 11.119 11.285 11.5 12 11.5 C 13.54 11.5 14.502 9.833 13.732 8.5 C 13.375 7.881 12.715 7.5 12 7.5 Z" class="duoicon-primary-layer"></path>
  <path fill="currentColor" d="M 12 2 C 16.142 2 19.5 5.358 19.5 9.5 C 19.5 12.068 18.1 14.156 16.65 15.64 C 16.074 16.224 15.454 16.764 14.797 17.255 C 14.203 17.701 12.845 18.537 12.845 18.537 C 12.321 18.835 11.679 18.835 11.155 18.537 C 10.481 18.147 9.829 17.719 9.203 17.255 C 8.546 16.764 7.926 16.224 7.35 15.64 C 5.9 14.156 4.5 12.068 4.5 9.5 C 4.5 5.358 7.8580000000000005 2 12 2 Z" opacity=".3" class="duoicon-secondary-layer"></path>
</svg>