<svg class="duoicon" width="1em" height="1em" viewBox="0 0 24 24" xmlns="http://www.w3.org/2000/svg">
  <path fill="currentColor" d="M 12 2 C 16.971 2 21 6.029 21 11 C 21 14.074 19.324 16.59 17.558 18.395 C 16.676 19.287 15.713 20.096 14.682 20.811 L 14.256 21.101 L 14.056 21.234 L 13.679 21.474 L 13.343 21.679 L 12.927 21.921 C 12.352 22.248 11.648 22.248 11.073 21.921 L 10.657 21.679 L 10.137 21.359 L 9.945 21.234 L 9.535 20.961 C 8.423 20.208 7.3870000000000005 19.349 6.442 18.395 C 4.676 16.588 3 14.074 3 11 C 3 6.029 7.029 2 12 2 Z" fill-rule="evenodd" opacity=".3" class="duoicon-secondary-layer"></path>
  <path fill="currentColor" d="M 15.08 7.983 L 10.835 12.227 L 9.067 10.459 C 8.522 9.915 7.593 10.164 7.394 10.908 C 7.301 11.253 7.4 11.621 7.6530000000000005 11.874 L 10.057 14.278 C 10.487 14.708 11.183 14.708 11.613 14.278 L 16.493 9.397 C 17.028 8.843 16.763 7.918 16.016 7.732 C 15.681 7.649 15.327 7.743 15.079 7.983 L 15.08 7.983 Z" fill-rule="evenodd" class="duoicon-primary-layer"></path>
</svg>