<svg class="duoicon" width="1em" height="1em" viewBox="0 0 24 24" xmlns="http://www.w3.org/2000/svg">
    <path fill="currentColor" d="M 4 18 C 3.716666666666667 18 3.4793333333333334 17.904 3.2880000000000003 17.712 C 3.096 17.520666666666667 3 17.283333333333335 3 17 C 3 16.716666666666665 3.096 16.479333333333333 3.2880000000000003 16.288 C 3.4793333333333334 16.096 3.716666666666667 16 4 16 L 15 16 C 15.283333333333333 16 15.521 16.096 15.713 16.288 C 15.904333333333334 16.479333333333333 16 16.716666666666665 16 17 C 16 17.283333333333335 15.904333333333334 17.520666666666667 15.713 17.712 C 15.521 17.904 15.283333333333333 18 15 18 L 4 18 Z" class="duoicon-primary-layer"></path>
    <path fill="currentColor" d="M 17.4 12 L 20.299999999999997 14.9 C 20.48333333333333 15.083333333333334 20.574999999999996 15.316666666666666 20.574999999999996 15.6 C 20.574999999999996 15.883333333333333 20.48333333333333 16.116666666666667 20.299999999999997 16.3 C 20.116666666666664 16.483333333333334 19.883333333333333 16.575 19.599999999999998 16.575 C 19.316666666666663 16.575 19.083333333333332 16.483333333333334 18.9 16.3 L 15.299999999999999 12.700000000000001 C 15.099999999999998 12.5 14.999999999999998 12.266666666666667 14.999999999999998 12.000000000000002 C 14.999999999999998 11.733333333333334 15.099999999999998 11.500000000000002 15.299999999999999 11.300000000000002 L 18.9 7.700000000000003 C 19.083333333333332 7.516666666666669 19.316666666666663 7.4250000000000025 19.599999999999998 7.4250000000000025 C 19.883333333333333 7.4250000000000025 20.116666666666664 7.516666666666669 20.299999999999997 7.700000000000003 C 20.48333333333333 7.883333333333336 20.574999999999996 8.116666666666669 20.574999999999996 8.400000000000002 C 20.574999999999996 8.683333333333335 20.48333333333333 8.91666666666667 20.299999999999997 9.100000000000001 L 17.4 12 Z" opacity=".3" class="duoicon-secondary-layer"></path>
    <path fill="currentColor" d="M 4 8 C 3.716666666666667 8 3.4793333333333334 7.904333333333334 3.2880000000000003 7.713 C 3.096 7.521 3 7.283333333333333 3 7 C 3 6.716666666666667 3.096 6.479 3.2880000000000003 6.287 C 3.4793333333333334 6.095666666666666 3.716666666666667 6 4 6 L 15 6 C 15.283333333333333 6 15.521 6.095666666666666 15.713 6.287 C 15.904333333333334 6.479 16 6.716666666666667 16 7 C 16 7.283333333333333 15.904333333333334 7.521 15.713 7.713 C 15.521 7.904333333333334 15.283333333333333 8 15 8 L 4 8 Z" class="duoicon-primary-layer"></path>
    <path fill="currentColor" d="M 4 13 C 3.716666666666667 13 3.4793333333333334 12.904 3.2880000000000003 12.712 C 3.096 12.520666666666667 3 12.283333333333333 3 12 C 3 11.716666666666667 3.096 11.479 3.2880000000000003 11.287 C 3.4793333333333334 11.095666666666666 3.716666666666667 11 4 11 L 12 11 C 12.283333333333333 11 12.521 11.095666666666666 12.713 11.287 C 12.904333333333334 11.479000000000001 13 11.716666666666667 13 12 C 13 12.283333333333333 12.904333333333334 12.520666666666665 12.713 12.712 C 12.521 12.904 12.283333333333333 13 12 13 L 4 13 Z" opacity=".3" class="duoicon-secondary-layer"></path>
</svg>