<svg class="duoicon" width="1em" height="1em" viewBox="0 0 24 24" xmlns="http://www.w3.org/2000/svg">
  <path fill="currentColor" d="M 12 2 C 17.523 2 22 6.477 22 12 C 22 17.523 17.523 22 12 22 L 4 22 C 2.895 22 2 21.105 2 20 L 2 12 C 2 6.477 6.477 2 12 2 Z" opacity=".3" class="duoicon-secondary-layer"></path>
  <path fill="currentColor" d="M 15 10 L 9 10 C 8.23 10.001 7.75 10.835 8.136 11.501 C 8.293 11.773 8.57 11.956 8.883 11.993 L 9 12 L 15 12 C 15.77 11.999 16.25 11.165 15.864 10.499 C 15.707 10.227 15.43 10.044 15.117 10.007 L 15 10 Z" class="duoicon-primary-layer"></path>
  <path fill="currentColor" d="M 12 14 L 9 14 C 8.23 14 7.749 14.833 8.134 15.5 C 8.313 15.809 8.643 16 9 16 L 12 16 C 12.77 16 13.251 15.167 12.866 14.5 C 12.687 14.191 12.357 14 12 14 Z" class="duoicon-primary-layer"></path>
</svg>