<svg class="duoicon" width="1em" height="1em" viewBox="0 0 24 24" xmlns="http://www.w3.org/2000/svg">
  <path fill="currentColor" d="M 19 10 C 20.657 10 22 11.343 22 13 L 22 16 C 22 17.657 20.657 19 19 19 L 19 19.966 C 19 21.026 17.764 21.605 16.95 20.926 L 14.638 19 L 12 19 C 10.343 19 9 17.657 9 16 L 9 13 C 9 11.343 10.343 10 12 10 L 19 10 Z" opacity=".3" class="duoicon-secondary-layer"></path>
  <path fill="currentColor" d="M 16 4 C 17.657 4 19 5.343 19 7 L 19 8 L 11 8 C 8.791 8 7 9.791 7 12 L 7 16 C 7 17.044 7.4 17.996 8.056 18.708 L 7 19.5 C 6.176 20.118 5 19.53 5 18.5 L 5 17 C 3.343 17 2 15.657 2 14 L 2 7 C 2 5.343 3.343 4 5 4 L 16 4 Z" class="duoicon-primary-layer"></path>
</svg>