<svg class="duoicon" width="1em" height="1em" viewBox="0 0 24 24" xmlns="http://www.w3.org/2000/svg">
  <path fill="currentColor" d="M 12.477 4.546 C 12.158 3.837 12.725999999999999 3.048 13.5 3.127 C 13.525 3.129 13.549 3.133 13.574 3.137 C 20.395 4.35 23.345 12.493 18.884 17.793 C 14.422 23.094 5.896 21.577 3.536 15.063 C 3.3609999999999998 14.579 3.227 14.081 3.137 13.574 C 3.002 12.808 3.746 12.183 4.476 12.449 C 4.5 12.457 4.523 12.467 4.546 12.477 C 8.76 14.369 13.441 10.989 12.972 6.394 C 12.907 5.756 12.74 5.132 12.477 4.546 Z" opacity=".3" class="duoicon-secondary-layer"></path>
  <path fill="currentColor" d="M 8.397 2.857 C 8.437 2.767 8.563 2.767 8.603 2.857 L 8.705 3.079 C 9.139 3.977 9.823 4.731 10.675 5.251 L 10.832 5.343 C 10.905 5.383 10.907 5.487 10.835 5.53 C 10.834 5.531 10.833 5.531 10.832 5.532 L 10.674 5.624 C 9.752 6.187 9.028 7.024 8.604 8.018 C 8.569 8.098 8.461 8.11 8.409 8.04 C 8.405 8.033 8.4 8.026 8.397 8.018 L 8.295 7.796 C 7.861 6.898 7.177 6.144 6.325 5.624 L 6.167 5.532 C 6.094 5.492 6.092 5.388 6.164 5.345 C 6.165 5.344 6.166 5.344 6.167 5.343 L 6.325 5.251 C 7.177 4.731 7.861 3.977 8.295 3.079 L 8.397 2.857 Z" class="duoicon-primary-layer"></path>
  <path fill="currentColor" d="M 5.565 7.716 L 5.629 7.856 C 5.902 8.42 6.3309999999999995 8.893 6.866 9.219 L 6.966 9.278 C 7.011 9.304 7.012 9.369 6.966 9.396 C 6.966 9.396 6.966 9.396 6.966 9.396 L 6.866 9.454 C 6.3309999999999995 9.78 5.902 10.254 5.629 10.818 L 5.565 10.958 C 5.543 11.008 5.475 11.016 5.443 10.971 C 5.44 10.967 5.437 10.963 5.4350000000000005 10.958 L 5.371 10.818 C 5.098 10.254 4.669 9.78 4.134 9.454 L 4.034 9.396 C 3.989 9.37 3.988 9.305 4.034 9.278 C 4.034 9.278 4.034 9.278 4.034 9.278 L 4.134 9.219 C 4.668 8.893 5.098 8.419 5.37 7.855 L 5.434 7.715 C 5.456 7.665 5.524 7.657 5.556 7.702 C 5.559 7.7059999999999995 5.562 7.71 5.564 7.715 L 5.565 7.716 Z" class="duoicon-primary-layer"></path>
</svg>