<svg class="duoicon" width="1em" height="1em" viewBox="0 0 24 24" xmlns="http://www.w3.org/2000/svg">
  <path fill="currentColor" d="M 18.165 2.765 L 18.42 2.7969999999999997 C 19.094 2.89 19.986 3.015 20.491 3.521 C 20.905 3.934 21.064 4.606 21.159 5.206 L 21.215 5.592 C 21.341 6.502 21.374 7.694 21.159 9.018 C 20.735 11.631 19.344 14.749 15.851 17.163 C 15.832 17.351 15.831 17.541 15.835 17.731 L 15.845 18.015 C 15.861 18.452 15.877 18.888 15.755 19.313 C 15.565 19.973 14.888 20.408 14.255 20.72 L 13.945 20.867 L 13.545 21.043 C 12.797 21.361 11.786999999999999 21.687 11.154 21.053 C 10.774000000000001 20.674 10.618 20.118 10.491 19.565 L 10.444 19.358 C 10.391 19.097 10.324 18.838 10.244 18.584 C 10.194 18.438 10.14 18.289 10.082 18.139 C 10.018 18.217 9.95 18.292 9.879 18.364 C 9.534 18.709 9.019 18.95 8.595 19.119 C 8.132 19.302 7.608 19.462 7.123 19.594 L 6.8740000000000006 19.66 L 6.397 19.779 L 5.965 19.879 L 5.448 19.989 L 5.125 20.052 C 4.428 20.181 3.819 19.572 3.948 18.875 L 4.034 18.444 L 4.188 17.746 L 4.312 17.236 L 4.406 16.876 C 4.538 16.392 4.698 15.868 4.882 15.406 C 5.05 14.981 5.291 14.466 5.636 14.121 L 5.716 14.044 L 5.652 14.018 C 5.481 13.953 5.308 13.894 5.133 13.841 L 4.856 13.756 C 4.162 13.546 3.42 13.32 2.959 12.858 C 2.399 12.299 2.588 11.448 2.858 10.74 L 2.968 10.466 L 3.145 10.066 L 3.292 9.756 C 3.604 9.124 4.039 8.447 4.699 8.257 C 5.049 8.157 5.413 8.151 5.779 8.161 L 5.999 8.168 C 6.285 8.178 6.57 8.189 6.849 8.162 C 9.263 4.668 12.381 3.277 14.994 2.853 C 16.042 2.681 17.109 2.651 18.165 2.765 Z" fill-rule="evenodd" opacity=".3" class="duoicon-secondary-layer"></path>
  <path fill="currentColor" d="M 15.536 8.466 C 14.448 7.377 12.588 7.875 12.19 9.362 C 12.005 10.052 12.202 10.789 12.707 11.294 C 13.795 12.383 15.655 11.885 16.053 10.398 C 16.238 9.708 16.041 8.971 15.536 8.466 Z" fill-rule="evenodd" class="duoicon-primary-layer"></path>
  <path fill="currentColor" d="M 8.353 15.44 C 8.031 15.202 7.599 15.178 7.253 15.38 L 7.143 15.454 L 7.05 15.537 L 6.925 15.695 C 6.665 16.071 6.517 16.591 6.402 17.077 L 6.2940000000000005 17.545 L 6.243 17.758 L 6.434 17.712 L 6.852 17.616 C 7.43 17.481 8.071 17.306 8.465 16.951 C 8.819 16.597 8.857 16.035 8.553 15.637 L 8.471 15.543 L 8.447 15.52 L 8.353 15.44 Z" fill-rule="evenodd" class="duoicon-primary-layer"></path>
</svg>