<svg class="duoicon" width="1em" height="1em" viewBox="0 0 24 24" xmlns="http://www.w3.org/2000/svg">
  <path fill="currentColor" d="M 9.965 2.809 C 9.561 2.513 9.036 2.4370000000000003 8.564 2.606 C 7.478 3.004 6.469 3.588 5.582 4.3309999999999995 C 5.201 4.655 5.004 5.147 5.058 5.644 C 5.133 6.397 5 7.124 4.638 7.75 C 4.277 8.377 3.713 8.856 3.023 9.167 C 2.565 9.37 2.237 9.786999999999999 2.148 10.28 C 1.9500000000000002 11.418 1.9500000000000002 12.582 2.148 13.72 C 2.241 14.257 2.608 14.646 3.023 14.834 C 3.713 15.144 4.277 15.624 4.639 16.25 C 5 16.877 5.133 17.603 5.058 18.356 C 5.013 18.808 5.165 19.32 5.582 19.669 C 6.469 20.412 7.478 20.996 8.564 21.394 C 9.035 21.563 9.56 21.487 9.964 21.191 C 10.579 20.749 11.276 20.5 12 20.5 C 12.724 20.5 13.42 20.749 14.035 21.191 C 14.405 21.457 14.925 21.581 15.436 21.394 C 16.522 20.996 17.531 20.412 18.418 19.669 C 18.835 19.32 18.988 18.809 18.942 18.356 C 18.867 17.603 18.999 16.876 19.362 16.25 C 19.723 15.623 20.287 15.145 20.977 14.834 C 21.391 14.646 21.759 14.257 21.852 13.72 C 22.049 12.582 22.049 11.418 21.852 10.28 C 21.763 9.786999999999999 21.435 9.37 20.977 9.167 C 20.287 8.856 19.723 8.377 19.361 7.75 C 18.999 7.124 18.867 6.397 18.942 5.644 C 18.995 5.147 18.799 4.655 18.418 4.3309999999999995 C 17.531 3.588 16.522 3.004 15.436 2.606 C 14.965 2.438 14.44 2.5140000000000002 14.036 2.809 C 13.42 3.25 12.723 3.5 12 3.5 C 11.277 3.5 10.58 3.251 9.965 2.809 Z" fill-rule="evenodd" opacity=".3" class="duoicon-secondary-layer"></path>
  <path fill="currentColor" d="M 9 12 C 9 9.691 11.5 8.247 13.5 9.402 C 14.428 9.938 15 10.928 15 12 C 15 14.309 12.5 15.753 10.5 14.598 C 9.572 14.062 9 13.072 9 12 Z" fill-rule="evenodd" class="duoicon-primary-layer"></path>
</svg>