<svg class="duoicon" width="1em" height="1em" viewBox="0 0 24 24" xmlns="http://www.w3.org/2000/svg">
  <path fill="currentColor" d="M 10.464 3.282 C 11.222 2.373 12.599 2.317 13.428 3.162 L 13.536 3.282 L 17.468 8 L 20.453 8 C 21.343 7.998 22.036 8.771 21.937 9.655 L 21.845 10.421 L 21.745 11.161 L 21.663 11.715 L 21.568 12.31 L 21.46 12.935 L 21.338 13.583 L 21.202 14.244 C 21.13 14.577 21.053 14.911 20.97 15.242 C 20.749 16.12 20.471 16.983 20.138 17.826 L 19.917 18.366 L 19.703 18.854 L 19.501 19.288 L 19.407 19.482 L 19.158 19.972 C 18.838 20.582 18.234 20.942 17.595 20.994 L 17.435 21 L 6.555 21 C 5.843 21.006 5.185 20.618 4.845 19.992 L 4.6129999999999995 19.542 L 4.433 19.172 C 4.401 19.104 4.369 19.036 4.338 18.967 L 4.138 18.518 C 3.681 17.457 3.311 16.362 3.03 15.242 C 2.976 15.025 2.924 14.807 2.874 14.588 L 2.732 13.94 L 2.605 13.306 L 2.493 12.693 L 2.393 12.106 L 2.306 11.552 L 2.232 11.039 L 2.142 10.356 L 2.076 9.8 C 2.07 9.749 2.065 9.698 2.059 9.647 C 1.971 8.82 2.5780000000000003 8.081 3.407 8.007 L 3.543 8 L 6.532 8 L 10.464 3.282 Z" fill-rule="evenodd" opacity=".3" class="duoicon-secondary-layer"></path>
  <path fill="currentColor" d="M 12 4.562 L 9.135 8 L 14.865 8 L 12 4.562 Z" fill-rule="evenodd" class="duoicon-primary-layer"></path>
  <path fill="currentColor" d="M 15.164 12.014 C 14.664 11.931000000000001 14.18 12.235 14.039 12.722 L 14.014 12.836 L 13.514 15.836 C 13.388 16.595 14.131 17.206 14.852 16.936 C 15.147 16.825 15.373 16.581 15.461 16.278 L 15.486 16.164 L 15.986 13.164 C 16.076 12.62 15.708 12.105 15.164 12.014 Z" fill-rule="evenodd" class="duoicon-primary-layer"></path>
  <path fill="currentColor" d="M 9.961 12.722 C 9.749 11.982 8.815 11.749 8.28 12.303 C 8.088 12.502 7.987 12.772 8.001 13.048 L 8.014 13.164 L 8.514 16.164 L 8.539 16.278 C 8.751 17.018 9.685 17.251 10.22 16.697 C 10.412 16.498 10.513 16.228 10.499 15.952 L 10.486 15.836 L 9.986 12.836 L 9.961 12.722 Z" fill-rule="evenodd" class="duoicon-primary-layer"></path>
</svg>