<svg class="duoicon" width="1em" height="1em" viewBox="0 0 24 24" xmlns="http://www.w3.org/2000/svg">
  <path fill="currentColor" d="M 15.535 2.808 L 21.192 8.464 C 21.973 9.245 21.973 10.512 21.192 11.293 L 11.292 21.193 C 10.511 21.974 9.245 21.974 8.464 21.193 L 2.807 15.535 C 2.026 14.754 2.026 13.488 2.807 12.707 L 12.707 2.807 C 13.488 2.026 14.754 2.026 15.535 2.807 L 15.535 2.808 Z" fill-rule="evenodd" opacity=".3" class="duoicon-secondary-layer"></path>
  <path fill="currentColor" d="M 8.464 2.808 C 8.854 3.198 8.854 3.832 8.464 4.222 L 4.222 8.464 C 3.678 9.009 2.748 8.76 2.548 8.016 C 2.456 7.671 2.5540000000000003 7.303 2.807 7.05 L 7.05 2.808 C 7.44 2.418 8.074 2.418 8.464 2.808 Z" fill-rule="evenodd" class="duoicon-primary-layer"></path>
  <path fill="currentColor" d="M 8.818 13.768 L 8.111 14.475 C 7.916 14.67 7.916 14.987 8.111 15.182 L 8.818 15.889 C 9.013 16.084 9.33 16.084 9.525 15.889 L 10.232 15.182 C 10.427 14.987 10.427 14.67 10.232 14.475 L 9.525 13.768 C 9.33 13.573 9.013 13.573 8.818 13.768 Z" fill-rule="evenodd" class="duoicon-primary-layer"></path>
  <path fill="currentColor" d="M 21.192 15.536 C 21.582 15.926 21.582 16.56 21.192 16.95 L 16.95 21.192 C 16.406 21.737 15.476 21.488 15.276 20.744 C 15.184 20.399 15.282 20.031 15.535 19.778 L 19.778 15.536 C 20.168 15.146 20.802 15.146 21.192 15.536 Z" fill-rule="evenodd" class="duoicon-primary-layer"></path>
</svg>