<svg class="duoicon" width="1em" height="1em" viewBox="0 0 24 24" xmlns="http://www.w3.org/2000/svg">
  <path fill="currentColor" d="M 9.5 2 C 8.395430500338414 2 7.5 2.8954305003384135 7.5 4 L 7.5 5.29 C 7.963 5.104 8.47 5 9 5 L 15 5 C 15.51398768271044 4.9993962008746635 16.023276449998317 5.09785849114461 16.5 5.29 L 16.5 4 C 16.5 2.8954305003384135 15.604569499661586 2 14.5 2 L 9.5 2 Z" class="duoicon-primary-layer"></path>
  <path fill="currentColor" d="M 9 19 C 8.48601231728956 19.000603799125336 7.976723550001681 18.90214150885539 7.5 18.71 L 7.5 20 C 7.5 21.104569499661586 8.395430500338414 22 9.5 22 L 14.5 22 C 15.604569499661586 22 16.5 21.104569499661586 16.5 20 L 16.5 18.71 C 16.023276449998317 18.90214150885539 15.51398768271044 19.000603799125336 15 19 L 9 19 Z" class="duoicon-primary-layer"></path>
  <path fill="currentColor" d="M 9 6 C 7.34314575050762 6 6 7.34314575050762 6 9 L 6 15 C 6 16.65685424949238 7.34314575050762 18 9 18 L 15 18 C 16.65685424949238 18 18 16.65685424949238 18 15 L 18 13 C 18.552284749830793 13 19 12.552284749830793 19 12 L 19 11 C 19 10.447715250169207 18.552284749830793 10 18 10 L 18 9 C 18 7.34314575050762 16.65685424949238 6 15 6 L 9 6 Z" opacity=".3" class="duoicon-secondary-layer"></path>
</svg>