<svg class="duoicon" width="1em" height="1em" viewBox="0 0 24 24" xmlns="http://www.w3.org/2000/svg">
  <path fill="currentColor" d="M 12 2 C 12.507 2 12.934 2.38 12.993 2.883 L 13 3 L 13 3.055 C 17.077 3.512 20.33 6.667 20.911 10.729 L 20.945 11 L 21 11 C 21.77 11.001 22.25 11.835 21.864 12.501 C 21.707 12.773 21.43 12.956 21.117 12.993 L 21 13 L 20.945 13 C 20.488 17.077 17.333 20.33 13.271 20.911 L 13 20.945 L 13 21 C 12.999 21.77 12.165 22.25 11.499 21.864 C 11.227 21.707 11.044 21.43 11.007 21.117 L 11 21 L 11 20.945 C 6.923 20.488 3.67 17.333 3.089 13.271 L 3.055 13 L 3 13 C 2.23 12.999 1.75 12.165 2.136 11.499 C 2.293 11.227 2.5700000000000003 11.044 2.883 11.007 L 3 11 L 3.055 11 C 3.512 6.923 6.667 3.67 10.729 3.089 L 11 3.055 L 11 3 C 11 2.448 11.448 2 12 2 Z" opacity=".3" class="duoicon-secondary-layer"></path>
  <path fill="currentColor" d="M 12 7 C 8.151 7 5.745 11.167 7.67 14.5 C 8.563 16.047 10.214 17 12 17 C 15.849 17 18.255 12.833 16.33 9.5 C 15.437 7.953 13.786 7 12 7 Z" class="duoicon-primary-layer"></path>
</svg>