<svg class="duoicon" width="1em" height="1em" viewBox="0 0 24 24" xmlns="http://www.w3.org/2000/svg">
    <path fill="currentColor" d="M 17 10.5 C 17.773 10.5 18.419 11.087 18.493 11.856 L 18.5 12 L 18.5 12.5 L 19.5 12.5 C 20.547 12.5 21.417 13.306 21.495 14.35 L 21.5 14.5 L 21.5 17.5 C 21.5 18.547 20.694 19.417 19.65 19.495 L 19.5 19.5 L 18.5 19.5 L 18.5 20 C 18.499 21.155 17.249 21.876 16.249 21.298000000000002 C 15.83 21.056 15.554 20.626 15.507 20.144 L 15.5 20 L 15.5 19.5 L 14.5 19.5 C 13.453 19.5 12.583 18.694 12.505 17.65 L 12.5 17.5 L 12.5 14.5 C 12.5 13.453 13.306 12.583 14.35 12.505 L 14.5 12.5 L 15.5 12.5 L 15.5 12 C 15.5 11.172 16.172 10.5 17 10.5 Z" opacity=".3" class="duoicon-secondary-layer"></path>
    <path fill="currentColor" d="M 17 3.5 C 18.933 3.5 20.5 5.067 20.5 7 L 20.5 9 C 20.5 10.155 19.25 10.876 18.25 10.299 C 17.786 10.031 17.5 9.536 17.5 9 L 17.5 7 C 17.5 6.724 17.276 6.5 17 6.5 L 14 6.5 C 12.845 6.5 12.124 5.25 12.701 4.25 C 12.969 3.786 13.464 3.5 14 3.5 L 17 3.5 Z" class="duoicon-primary-layer"></path>
    <path fill="currentColor" d="M 9.5 2.5 C 10.655 2.5 11.376 3.75 10.799 4.75 C 10.531 5.214 10.036 5.5 9.5 5.5 L 5.5 5.5 L 5.5 6.5 L 9 6.5 C 10.155 6.5 10.876 7.75 10.299 8.75 C 10.031 9.214 9.536 9.5 9 9.5 L 5.5 9.5 L 5.5 10.5 L 10 10.5 C 11.155 10.5 11.876 11.75 11.299 12.75 C 11.031 13.214 10.536 13.5 10 13.5 L 4.1 13.5 C 3.216 13.5 2.5 12.784 2.5 11.9 L 2.5 4.1 C 2.5 3.216 3.216 2.5 4.1 2.5 L 9.5 2.5 Z" opacity=".3" class="duoicon-secondary-layer"></path>
    <path fill="currentColor" d="M 19.5 15 L 18.5 15 L 18.5 17 L 19.5 17 L 19.5 15 Z" class="duoicon-primary-layer"></path>
    <path fill="currentColor" d="M 15.5 15 L 14.5 15 L 14.5 17 L 15.5 17 L 15.5 15 Z" class="duoicon-primary-layer"></path>
    <path fill="currentColor" d="M 5 14.5 C 5.828 14.5 6.5 15.172 6.5 16 L 6.5 17 C 6.5 17.276 6.724 17.5 7 17.5 L 10 17.5 C 11.155 17.5 11.876 18.75 11.299 19.75 C 11.031 20.214 10.536 20.5 10 20.5 L 7 20.5 C 5.067 20.5 3.5 18.933 3.5 17 L 3.5 16 C 3.5 15.172 4.172 14.5 5 14.5 Z" class="duoicon-primary-layer"></path>
</svg>