<svg class="duoicon" width="1em" height="1em" viewBox="0 0 24 24" xmlns="http://www.w3.org/2000/svg">
  <path fill="currentColor" d="M 14.447 1.106 C 14.941 1.353 15.141 1.953 14.894 2.447 L 14.118 4 L 18 4 C 19.105 4 20 4.895 20 6 L 20 20 C 20 21.105 19.105 22 18 22 L 6 22 C 4.895 22 4 21.105 4 20 L 4 6 C 4 4.895 4.895 4 6 4 L 9.882 4 L 9.106 2.447 C 8.783 1.748 9.338 0.962 10.105 1.032 C 10.438 1.062 10.735 1.258 10.894 1.553 L 12 3.763 L 13.106 1.553 C 13.353 1.059 13.953 0.8590000000000001 14.447 1.106 Z" fill-rule="evenodd" opacity=".3" class="duoicon-secondary-layer"></path>
  <path fill="currentColor" d="M 12 9 C 10.46 9 9.498 10.667 10.268 12 C 10.625 12.619 11.285 13 12 13 C 13.54 13 14.502 11.333 13.732 10 C 13.375 9.381 12.715 9 12 9 Z" fill-rule="evenodd" class="duoicon-primary-layer"></path>
  <path fill="currentColor" d="M 13.5 14 L 10.5 14 C 9.183 14 8.091 15.022 8.005 16.336 L 8 16.5 L 8 17 C 8.001 17.77 8.835 18.25 9.501 17.864 C 9.773 17.707 9.956 17.43 9.993 17.117 L 10 17 L 10 16.5 C 10 16.259 10.172 16.051 10.41 16.008 L 10.5 16 L 13.5 16 C 13.741 16 13.949 16.172 13.992 16.41 L 14 16.5 L 14 17 C 14.001 17.77 14.835 18.25 15.501 17.864 C 15.773 17.707 15.956 17.43 15.993 17.117 L 16 17 L 16 16.5 C 16 15.183 14.978 14.091 13.664 14.005 L 13.5 14 Z" fill-rule="evenodd" class="duoicon-primary-layer"></path>
</svg>