<svg class="duoicon" width="1em" height="1em" viewBox="0 0 24 24" xmlns="http://www.w3.org/2000/svg">
    <path fill="currentColor" d="M 12 2 C 17.523 2 22 6.477 22 12 C 22 17.523 17.523 22 12 22 C 6.477 22 2 17.523 2 12 C 2 6.477 6.477 2 12 2 Z" opacity=".3" class="duoicon-secondary-layer"></path>
    <path fill="currentColor" d="M 12 4 C 9.519 3.998 7.178 5.149 5.665 7.114 L 5.5 7.335 L 5.5 9.02 C 5.5 10.27 6.275 11.389 7.445 11.829 L 7.623 11.889 L 8.913 12.284 C 10.286 12.704 11.623 11.587 11.49 10.188 L 11.471 10.043 L 11.296 8.994 C 11.216 8.514 11.493 8.047 11.952 7.886 L 12.06 7.856 L 12.672 7.716 C 14.135 7.382 15.034 5.907 14.661 4.453 C 13.806000000000001 4.152 12.906 3.999 12 4 Z" class="duoicon-primary-layer"></path>
    <path fill="currentColor" d="M 14 13.4 L 12.436 14.651 C 12.203 14.837 12.184 15.184 12.395 15.395 L 13.634 16.634 C 13.874 16.874 14.049 17.172 14.142 17.498 L 14.317 18.111 C 14.464 18.632 14.837 19.059 15.334 19.274 C 16.291 18.834 17.151 18.211 17.867 17.439 L 17.633 15.562 C 17.55 14.899000000000001 17.141 14.321 16.543 14.022 L 15.073 13.286 C 14.724 13.111 14.305 13.156 14 13.4 Z" class="duoicon-primary-layer"></path>
</svg>